<mxfile host="app.diagrams.net" agent="Mozilla/5.0 (Windows NT 10.0; Win64; x64) AppleWebKit/537.36 (KHTML, like Gecko) Chrome/137.0.0.0 Safari/537.36 Edg/137.0.0.0" version="27.1.6">
  <diagram id="C5RBs43oDa-KdzZeNtuy" name="Page-1">
    <mxGraphModel grid="1" page="1" gridSize="10" guides="1" tooltips="1" connect="1" arrows="1" fold="1" pageScale="1" pageWidth="827" pageHeight="1169" math="0" shadow="0" adaptiveColors="auto">
      <root>
        <mxCell id="WIyWlLk6GJQsqaUBKTNV-0" />
        <mxCell id="WIyWlLk6GJQsqaUBKTNV-1" parent="WIyWlLk6GJQsqaUBKTNV-0" />
        <mxCell id="h55tvgQfYBZGvIcUPzXj-52" value="&lt;span style=&quot;font-size: 18px;&quot;&gt;&lt;b&gt;Instructor&lt;/b&gt;&lt;/span&gt;" style="rounded=1;arcSize=10;whiteSpace=wrap;html=1;align=center;labelBackgroundColor=none;fillColor=#B7272A;strokeColor=#b85450;fontColor=#FFFFFF;" vertex="1" parent="WIyWlLk6GJQsqaUBKTNV-1">
          <mxGeometry x="1120" y="-81.28999999999999" width="150" height="70" as="geometry" />
        </mxCell>
        <mxCell id="h55tvgQfYBZGvIcUPzXj-53" value="&lt;b style=&quot;font-size: 16px;&quot;&gt;&lt;u&gt;I_ID&lt;/u&gt;&lt;/b&gt;" style="ellipse;whiteSpace=wrap;html=1;align=center;fontStyle=4;rounded=1;labelBackgroundColor=none;fillColor=#E6E6E6;strokeColor=#666666;fontColor=#333333;" vertex="1" parent="WIyWlLk6GJQsqaUBKTNV-1">
          <mxGeometry x="1225" y="-152.93" width="100" height="40" as="geometry" />
        </mxCell>
        <mxCell id="h55tvgQfYBZGvIcUPzXj-59" value="&lt;b style=&quot;&quot;&gt;&lt;font style=&quot;font-size: 15px;&quot;&gt;FirstName&lt;/font&gt;&lt;/b&gt;" style="ellipse;whiteSpace=wrap;html=1;align=center;rounded=1;labelBackgroundColor=none;fillColor=#E6E6E6;strokeColor=#666666;fontColor=#333333;" vertex="1" parent="WIyWlLk6GJQsqaUBKTNV-1">
          <mxGeometry x="1020" y="-571" width="110" height="40" as="geometry" />
        </mxCell>
        <mxCell id="h55tvgQfYBZGvIcUPzXj-60" value="&lt;b style=&quot;font-size: 16px;&quot;&gt;FullName&lt;/b&gt;" style="ellipse;whiteSpace=wrap;html=1;align=center;rounded=1;labelBackgroundColor=none;fillColor=#E6E6E6;strokeColor=#666666;fontColor=#333333;" vertex="1" parent="WIyWlLk6GJQsqaUBKTNV-1">
          <mxGeometry x="880" y="-584" width="100" height="40" as="geometry" />
        </mxCell>
        <mxCell id="h55tvgQfYBZGvIcUPzXj-61" value="&lt;b style=&quot;font-size: 16px;&quot;&gt;LastName&lt;/b&gt;" style="ellipse;whiteSpace=wrap;html=1;align=center;rounded=1;labelBackgroundColor=none;fillColor=#E6E6E6;strokeColor=#666666;fontColor=#333333;" vertex="1" parent="WIyWlLk6GJQsqaUBKTNV-1">
          <mxGeometry x="1025" y="-640" width="100" height="40" as="geometry" />
        </mxCell>
        <mxCell id="h55tvgQfYBZGvIcUPzXj-63" value="&lt;font style=&quot;font-size: 16px;&quot;&gt;Email&lt;/font&gt;" style="ellipse;whiteSpace=wrap;html=1;align=center;rounded=1;fontStyle=1;labelBackgroundColor=none;fillColor=#E6E6E6;strokeColor=#666666;fontColor=#333333;" vertex="1" parent="WIyWlLk6GJQsqaUBKTNV-1">
          <mxGeometry x="450" y="-520" width="100" height="40" as="geometry" />
        </mxCell>
        <mxCell id="h55tvgQfYBZGvIcUPzXj-67" value="&lt;span style=&quot;font-size: 16px;&quot;&gt;Address&lt;/span&gt;" style="ellipse;whiteSpace=wrap;html=1;align=center;rounded=1;fontStyle=1;labelBackgroundColor=none;fillColor=#E6E6E6;strokeColor=#666666;fontColor=#333333;" vertex="1" parent="WIyWlLk6GJQsqaUBKTNV-1">
          <mxGeometry x="720.5" y="-650" width="90" height="40" as="geometry" />
        </mxCell>
        <mxCell id="h55tvgQfYBZGvIcUPzXj-71" value="&lt;span style=&quot;font-size: 16px; font-weight: 700;&quot;&gt;Phone&lt;/span&gt;" style="ellipse;shape=doubleEllipse;margin=3;whiteSpace=wrap;html=1;align=center;labelBackgroundColor=none;fillColor=#E6E6E6;strokeColor=#666666;rounded=1;fontColor=#333333;" vertex="1" parent="WIyWlLk6GJQsqaUBKTNV-1">
          <mxGeometry x="480" y="-600" width="100" height="40" as="geometry" />
        </mxCell>
        <mxCell id="h55tvgQfYBZGvIcUPzXj-73" value="&lt;span style=&quot;font-size: 16px;&quot;&gt;SSN&lt;/span&gt;" style="ellipse;whiteSpace=wrap;html=1;align=center;rounded=1;fontStyle=1;labelBackgroundColor=none;fillColor=#E6E6E6;strokeColor=#666666;fontColor=#333333;" vertex="1" parent="WIyWlLk6GJQsqaUBKTNV-1">
          <mxGeometry x="590" y="-665" width="80" height="40" as="geometry" />
        </mxCell>
        <mxCell id="h55tvgQfYBZGvIcUPzXj-74" value="&lt;span style=&quot;font-size: 18px;&quot;&gt;&lt;b&gt;Department&lt;/b&gt;&lt;/span&gt;" style="rounded=1;arcSize=10;whiteSpace=wrap;html=1;align=center;labelBackgroundColor=none;fillColor=#B7272A;strokeColor=#b85450;fontColor=#FFFFFF;" vertex="1" parent="WIyWlLk6GJQsqaUBKTNV-1">
          <mxGeometry x="282" y="360" width="150" height="70" as="geometry" />
        </mxCell>
        <mxCell id="h55tvgQfYBZGvIcUPzXj-103" value="" style="endArrow=none;html=1;rounded=1;exitX=0.5;exitY=1;exitDx=0;exitDy=0;labelBackgroundColor=none;fontColor=default;fillColor=#d5e8d4;strokeColor=#82b366;entryX=0.48;entryY=0.006;entryDx=0;entryDy=0;entryPerimeter=0;" edge="1" parent="WIyWlLk6GJQsqaUBKTNV-1" source="h55tvgQfYBZGvIcUPzXj-67" target="y2G0NDdtF5iTaBQ4Nq8z-0">
          <mxGeometry relative="1" as="geometry">
            <mxPoint x="1241" y="250" as="sourcePoint" />
            <mxPoint x="740" y="-470" as="targetPoint" />
          </mxGeometry>
        </mxCell>
        <mxCell id="h55tvgQfYBZGvIcUPzXj-104" value="" style="endArrow=none;html=1;rounded=1;exitX=0.5;exitY=1;exitDx=0;exitDy=0;labelBackgroundColor=none;fontColor=default;fillColor=#d5e8d4;strokeColor=#82b366;entryX=0.533;entryY=0.005;entryDx=0;entryDy=0;entryPerimeter=0;" edge="1" parent="WIyWlLk6GJQsqaUBKTNV-1" source="h55tvgQfYBZGvIcUPzXj-66" target="h55tvgQfYBZGvIcUPzXj-52">
          <mxGeometry relative="1" as="geometry">
            <mxPoint x="1219" y="-221.29" as="sourcePoint" />
            <mxPoint x="1269" y="-81.28999999999999" as="targetPoint" />
          </mxGeometry>
        </mxCell>
        <mxCell id="h55tvgQfYBZGvIcUPzXj-106" value="" style="endArrow=none;html=1;rounded=1;exitX=0.5;exitY=1;exitDx=0;exitDy=0;labelBackgroundColor=none;fontColor=default;fillColor=#d5e8d4;strokeColor=#82b366;entryX=0.477;entryY=-0.013;entryDx=0;entryDy=0;entryPerimeter=0;" edge="1" parent="WIyWlLk6GJQsqaUBKTNV-1" source="h55tvgQfYBZGvIcUPzXj-73" target="y2G0NDdtF5iTaBQ4Nq8z-0">
          <mxGeometry relative="1" as="geometry">
            <mxPoint x="701" y="-580" as="sourcePoint" />
            <mxPoint x="571" y="-480" as="targetPoint" />
          </mxGeometry>
        </mxCell>
        <mxCell id="h55tvgQfYBZGvIcUPzXj-107" value="" style="endArrow=none;html=1;rounded=1;exitX=0.997;exitY=0.564;exitDx=0;exitDy=0;labelBackgroundColor=none;fontColor=default;fillColor=#d5e8d4;strokeColor=#82b366;entryX=0.5;entryY=0;entryDx=0;entryDy=0;exitPerimeter=0;" edge="1" parent="WIyWlLk6GJQsqaUBKTNV-1" source="h55tvgQfYBZGvIcUPzXj-63" target="y2G0NDdtF5iTaBQ4Nq8z-0">
          <mxGeometry relative="1" as="geometry">
            <mxPoint x="465" y="-480" as="sourcePoint" />
            <mxPoint x="385" y="-440" as="targetPoint" />
          </mxGeometry>
        </mxCell>
        <mxCell id="h55tvgQfYBZGvIcUPzXj-109" value="" style="endArrow=none;html=1;rounded=1;entryX=0.53;entryY=0.007;entryDx=0;entryDy=0;exitX=0.472;exitY=1.001;exitDx=0;exitDy=0;labelBackgroundColor=none;fontColor=default;fillColor=#d5e8d4;strokeColor=#82b366;exitPerimeter=0;entryPerimeter=0;" edge="1" parent="WIyWlLk6GJQsqaUBKTNV-1" source="h55tvgQfYBZGvIcUPzXj-53">
          <mxGeometry relative="1" as="geometry">
            <mxPoint x="1322.8000000000002" y="-190.93000000000006" as="sourcePoint" />
            <mxPoint x="1199.5" y="-81.28999999999995" as="targetPoint" />
          </mxGeometry>
        </mxCell>
        <mxCell id="h55tvgQfYBZGvIcUPzXj-110" value="" style="endArrow=none;html=1;rounded=1;entryX=0.5;entryY=1;entryDx=0;entryDy=0;labelBackgroundColor=none;fontColor=default;exitX=0.5;exitY=0;exitDx=0;exitDy=0;" edge="1" parent="WIyWlLk6GJQsqaUBKTNV-1" source="y2G0NDdtF5iTaBQ4Nq8z-0" target="h55tvgQfYBZGvIcUPzXj-71">
          <mxGeometry relative="1" as="geometry">
            <mxPoint x="300" y="-630" as="sourcePoint" />
            <mxPoint x="410" y="-610" as="targetPoint" />
          </mxGeometry>
        </mxCell>
        <mxCell id="h55tvgQfYBZGvIcUPzXj-136" value="&lt;span style=&quot;font-size: 18px;&quot;&gt;&lt;b&gt;User&lt;/b&gt;&lt;/span&gt;" style="rounded=1;arcSize=10;whiteSpace=wrap;html=1;align=center;labelBackgroundColor=none;fillColor=#B7272A;strokeColor=#FF3333;fontColor=#FFFFFF;" vertex="1" parent="WIyWlLk6GJQsqaUBKTNV-1">
          <mxGeometry x="152" y="-670" width="150" height="70" as="geometry" />
        </mxCell>
        <mxCell id="h55tvgQfYBZGvIcUPzXj-139" value="&lt;span style=&quot;font-size: 16px;&quot;&gt;&lt;b&gt;Role&lt;/b&gt;&lt;/span&gt;" style="ellipse;whiteSpace=wrap;html=1;align=center;rounded=1;labelBackgroundColor=none;fillColor=#E6E6E6;strokeColor=#d6b656;" vertex="1" parent="WIyWlLk6GJQsqaUBKTNV-1">
          <mxGeometry x="237" y="-780" width="100" height="40" as="geometry" />
        </mxCell>
        <mxCell id="h55tvgQfYBZGvIcUPzXj-140" value="&lt;span style=&quot;font-size: 16px;&quot;&gt;&lt;b&gt;UserName&lt;/b&gt;&lt;/span&gt;" style="ellipse;whiteSpace=wrap;html=1;align=center;rounded=1;labelBackgroundColor=none;fillColor=#E6E6E6;strokeColor=#d6b656;" vertex="1" parent="WIyWlLk6GJQsqaUBKTNV-1">
          <mxGeometry x="117" y="-780" width="100" height="40" as="geometry" />
        </mxCell>
        <mxCell id="h55tvgQfYBZGvIcUPzXj-141" value="&lt;span style=&quot;font-size: 16px;&quot;&gt;&lt;b&gt;Account_ID&lt;/b&gt;&lt;/span&gt;" style="ellipse;whiteSpace=wrap;html=1;align=center;fontStyle=4;rounded=1;labelBackgroundColor=none;fillColor=#E6E6E6;strokeColor=#d6b656;" vertex="1" parent="WIyWlLk6GJQsqaUBKTNV-1">
          <mxGeometry x="307" y="-725" width="110" height="40" as="geometry" />
        </mxCell>
        <mxCell id="h55tvgQfYBZGvIcUPzXj-143" value="&lt;span style=&quot;font-size: 16px;&quot;&gt;&lt;b&gt;Hashed_Password&lt;/b&gt;&lt;/span&gt;" style="ellipse;whiteSpace=wrap;html=1;align=center;rounded=1;labelBackgroundColor=none;fillColor=#E6E6E6;strokeColor=#d6b656;" vertex="1" parent="WIyWlLk6GJQsqaUBKTNV-1">
          <mxGeometry x="-23" y="-725" width="160" height="40" as="geometry" />
        </mxCell>
        <mxCell id="h55tvgQfYBZGvIcUPzXj-144" value="" style="endArrow=none;html=1;rounded=1;entryX=0.5;entryY=0;entryDx=0;entryDy=0;exitX=0.5;exitY=1;exitDx=0;exitDy=0;labelBackgroundColor=none;fontColor=default;" edge="1" parent="WIyWlLk6GJQsqaUBKTNV-1" source="h55tvgQfYBZGvIcUPzXj-141" target="h55tvgQfYBZGvIcUPzXj-136">
          <mxGeometry relative="1" as="geometry">
            <mxPoint x="370" y="-690" as="sourcePoint" />
            <mxPoint x="312" y="-610" as="targetPoint" />
          </mxGeometry>
        </mxCell>
        <mxCell id="h55tvgQfYBZGvIcUPzXj-146" value="" style="endArrow=none;html=1;rounded=1;entryX=0.5;entryY=0;entryDx=0;entryDy=0;exitX=0.5;exitY=1;exitDx=0;exitDy=0;labelBackgroundColor=none;fontColor=default;" edge="1" parent="WIyWlLk6GJQsqaUBKTNV-1" source="h55tvgQfYBZGvIcUPzXj-139" target="h55tvgQfYBZGvIcUPzXj-136">
          <mxGeometry relative="1" as="geometry">
            <mxPoint x="271" y="-740" as="sourcePoint" />
            <mxPoint x="213" y="-660" as="targetPoint" />
          </mxGeometry>
        </mxCell>
        <mxCell id="h55tvgQfYBZGvIcUPzXj-147" value="" style="endArrow=none;html=1;rounded=1;exitX=0.5;exitY=1;exitDx=0;exitDy=0;labelBackgroundColor=none;fontColor=default;entryX=0.5;entryY=0;entryDx=0;entryDy=0;" edge="1" parent="WIyWlLk6GJQsqaUBKTNV-1" source="h55tvgQfYBZGvIcUPzXj-140" target="h55tvgQfYBZGvIcUPzXj-136">
          <mxGeometry relative="1" as="geometry">
            <mxPoint x="230" y="-710" as="sourcePoint" />
            <mxPoint x="232" y="-670" as="targetPoint" />
          </mxGeometry>
        </mxCell>
        <mxCell id="h55tvgQfYBZGvIcUPzXj-148" value="" style="endArrow=none;html=1;rounded=1;exitX=0.547;exitY=0.995;exitDx=0;exitDy=0;labelBackgroundColor=none;fontColor=default;exitPerimeter=0;entryX=0.5;entryY=0;entryDx=0;entryDy=0;" edge="1" parent="WIyWlLk6GJQsqaUBKTNV-1" source="h55tvgQfYBZGvIcUPzXj-143" target="h55tvgQfYBZGvIcUPzXj-136">
          <mxGeometry relative="1" as="geometry">
            <mxPoint x="180" y="-690" as="sourcePoint" />
            <mxPoint x="192" y="-670" as="targetPoint" />
          </mxGeometry>
        </mxCell>
        <mxCell id="h55tvgQfYBZGvIcUPzXj-151" value="&lt;span style=&quot;font-size: 18px;&quot;&gt;&lt;b&gt;Questions&amp;nbsp;&lt;/b&gt;&lt;/span&gt;" style="rounded=1;arcSize=10;whiteSpace=wrap;html=1;align=center;labelBackgroundColor=none;fillColor=#B7272A;strokeColor=#b85450;fontColor=#FFFFFF;" vertex="1" parent="WIyWlLk6GJQsqaUBKTNV-1">
          <mxGeometry x="1141" y="1150" width="150" height="70" as="geometry" />
        </mxCell>
        <mxCell id="h55tvgQfYBZGvIcUPzXj-155" value="&lt;font style=&quot;font-size: 18px;&quot;&gt;&lt;b&gt;Q_ID&lt;/b&gt;&lt;/font&gt;" style="ellipse;whiteSpace=wrap;html=1;align=center;fontStyle=4;labelBackgroundColor=none;fillColor=#E6E6E6;strokeColor=#d6b656;rounded=1;" vertex="1" parent="WIyWlLk6GJQsqaUBKTNV-1">
          <mxGeometry x="1155" y="1315.02" width="100" height="40" as="geometry" />
        </mxCell>
        <mxCell id="h55tvgQfYBZGvIcUPzXj-156" value="&lt;b style=&quot;font-size: 18px;&quot;&gt;Questions&amp;nbsp;&lt;/b&gt;" style="ellipse;whiteSpace=wrap;html=1;align=center;rounded=1;labelBackgroundColor=none;fillColor=#E6E6E6;strokeColor=#d6b656;" vertex="1" parent="WIyWlLk6GJQsqaUBKTNV-1">
          <mxGeometry x="1325" y="1245.02" width="100" height="40" as="geometry" />
        </mxCell>
        <mxCell id="h55tvgQfYBZGvIcUPzXj-157" value="&lt;span style=&quot;font-size: 18px;&quot;&gt;&lt;b&gt;Answer&lt;/b&gt;&lt;/span&gt;" style="ellipse;whiteSpace=wrap;html=1;align=center;rounded=1;labelBackgroundColor=none;fillColor=#E6E6E6;strokeColor=#d6b656;" vertex="1" parent="WIyWlLk6GJQsqaUBKTNV-1">
          <mxGeometry x="1265" y="1295.02" width="100" height="40" as="geometry" />
        </mxCell>
        <mxCell id="h55tvgQfYBZGvIcUPzXj-158" style="edgeStyle=orthogonalEdgeStyle;rounded=1;orthogonalLoop=1;jettySize=auto;html=1;exitX=0.5;exitY=1;exitDx=0;exitDy=0;labelBackgroundColor=none;fontColor=default;fillColor=#d5e8d4;strokeColor=#82b366;" edge="1" parent="WIyWlLk6GJQsqaUBKTNV-1" source="h55tvgQfYBZGvIcUPzXj-157" target="h55tvgQfYBZGvIcUPzXj-157">
          <mxGeometry relative="1" as="geometry" />
        </mxCell>
        <mxCell id="h55tvgQfYBZGvIcUPzXj-159" value="&lt;font style=&quot;font-size: 16px;&quot;&gt;&lt;b&gt;Choices&lt;/b&gt;&lt;/font&gt;" style="ellipse;shape=doubleEllipse;margin=3;whiteSpace=wrap;html=1;align=center;labelBackgroundColor=none;fillColor=#E6E6E6;strokeColor=#d6b656;rounded=1;" vertex="1" parent="WIyWlLk6GJQsqaUBKTNV-1">
          <mxGeometry x="1045" y="1295.02" width="100" height="40" as="geometry" />
        </mxCell>
        <mxCell id="h55tvgQfYBZGvIcUPzXj-162" value="&lt;span style=&quot;font-size: 18px;&quot;&gt;&lt;b&gt;Type&lt;/b&gt;&lt;/span&gt;" style="ellipse;whiteSpace=wrap;html=1;align=center;rounded=1;labelBackgroundColor=none;fillColor=#E6E6E6;strokeColor=#d6b656;" vertex="1" parent="WIyWlLk6GJQsqaUBKTNV-1">
          <mxGeometry x="975" y="1245.02" width="100" height="40" as="geometry" />
        </mxCell>
        <mxCell id="h55tvgQfYBZGvIcUPzXj-163" value="&lt;span style=&quot;font-size: 18px;&quot;&gt;&lt;b&gt;Track&amp;nbsp;&lt;/b&gt;&lt;/span&gt;" style="rounded=1;arcSize=10;whiteSpace=wrap;html=1;align=center;labelBackgroundColor=none;fillColor=#B7272A;strokeColor=#b85450;fontColor=#FFFFFF;" vertex="1" parent="WIyWlLk6GJQsqaUBKTNV-1">
          <mxGeometry x="387" y="1162.52" width="150" height="70" as="geometry" />
        </mxCell>
        <mxCell id="h55tvgQfYBZGvIcUPzXj-164" value="&lt;span style=&quot;font-size: 16px;&quot;&gt;&lt;b&gt;Name&lt;/b&gt;&lt;/span&gt;" style="ellipse;whiteSpace=wrap;html=1;align=center;rounded=1;labelBackgroundColor=none;fillColor=#E6E6E6;strokeColor=#d6b656;" vertex="1" parent="WIyWlLk6GJQsqaUBKTNV-1">
          <mxGeometry x="345" y="1295.02" width="100" height="40" as="geometry" />
        </mxCell>
        <mxCell id="h55tvgQfYBZGvIcUPzXj-165" style="edgeStyle=orthogonalEdgeStyle;rounded=1;orthogonalLoop=1;jettySize=auto;html=1;exitX=0;exitY=1;exitDx=0;exitDy=0;labelBackgroundColor=none;fontColor=default;fillColor=#d5e8d4;strokeColor=#82b366;" edge="1" parent="WIyWlLk6GJQsqaUBKTNV-1" source="h55tvgQfYBZGvIcUPzXj-166">
          <mxGeometry relative="1" as="geometry">
            <mxPoint x="491.9230769230767" y="1295.02" as="targetPoint" />
          </mxGeometry>
        </mxCell>
        <mxCell id="h55tvgQfYBZGvIcUPzXj-166" value="&lt;font style=&quot;font-size: 18px;&quot;&gt;&lt;b&gt;ID&lt;/b&gt;&lt;/font&gt;" style="ellipse;whiteSpace=wrap;html=1;align=center;fontStyle=4;labelBackgroundColor=none;fillColor=#E6E6E6;strokeColor=#d6b656;rounded=1;" vertex="1" parent="WIyWlLk6GJQsqaUBKTNV-1">
          <mxGeometry x="467" y="1295.02" width="100" height="40" as="geometry" />
        </mxCell>
        <mxCell id="h55tvgQfYBZGvIcUPzXj-167" value="" style="endArrow=none;html=1;rounded=1;exitX=0.5;exitY=0;exitDx=0;exitDy=0;entryX=0.5;entryY=0;entryDx=0;entryDy=0;labelBackgroundColor=none;fontColor=default;" edge="1" parent="WIyWlLk6GJQsqaUBKTNV-1" source="h55tvgQfYBZGvIcUPzXj-166" target="h55tvgQfYBZGvIcUPzXj-164">
          <mxGeometry relative="1" as="geometry">
            <mxPoint x="489.5" y="1132.52" as="sourcePoint" />
            <mxPoint x="468.5" y="1152.52" as="targetPoint" />
            <Array as="points">
              <mxPoint x="458.5" y="1232.52" />
            </Array>
          </mxGeometry>
        </mxCell>
        <mxCell id="h55tvgQfYBZGvIcUPzXj-203" value="&lt;font style=&quot;font-size: 16px;&quot;&gt;&lt;b&gt;Marital&lt;/b&gt;&lt;/font&gt;&lt;div&gt;&lt;font style=&quot;font-size: 16px;&quot;&gt;&lt;b&gt;Status&lt;/b&gt;&lt;/font&gt;&lt;/div&gt;" style="ellipse;whiteSpace=wrap;html=1;align=center;rounded=1;labelBackgroundColor=none;fillColor=#E6E6E6;strokeColor=#666666;fontColor=#333333;" vertex="1" parent="WIyWlLk6GJQsqaUBKTNV-1">
          <mxGeometry x="490" y="-680" width="100" height="40" as="geometry" />
        </mxCell>
        <mxCell id="h55tvgQfYBZGvIcUPzXj-206" value="&lt;b style=&quot;font-size: 16px;&quot;&gt;Gender&lt;/b&gt;" style="ellipse;whiteSpace=wrap;html=1;align=center;rounded=1;labelBackgroundColor=none;fillColor=#E6E6E6;strokeColor=#666666;fontColor=#333333;" vertex="1" parent="WIyWlLk6GJQsqaUBKTNV-1">
          <mxGeometry x="890" y="-710" width="100" height="60" as="geometry" />
        </mxCell>
        <mxCell id="h55tvgQfYBZGvIcUPzXj-209" style="edgeStyle=orthogonalEdgeStyle;rounded=1;orthogonalLoop=1;jettySize=auto;html=1;exitX=0.5;exitY=1;exitDx=0;exitDy=0;labelBackgroundColor=none;fontColor=default;" edge="1" parent="WIyWlLk6GJQsqaUBKTNV-1">
          <mxGeometry relative="1" as="geometry">
            <mxPoint x="207.5" y="-84.66999999999985" as="sourcePoint" />
            <mxPoint x="207.5" y="-84.66999999999985" as="targetPoint" />
          </mxGeometry>
        </mxCell>
        <mxCell id="h55tvgQfYBZGvIcUPzXj-210" value="&lt;b style=&quot;font-size: 16px;&quot;&gt;&lt;u&gt;ID&lt;/u&gt;&lt;/b&gt;" style="ellipse;whiteSpace=wrap;html=1;align=center;fontStyle=4;rounded=1;labelBackgroundColor=none;fillColor=#E6E6E6;strokeColor=#666666;fontColor=#333333;" vertex="1" parent="WIyWlLk6GJQsqaUBKTNV-1">
          <mxGeometry x="-140" y="-143.73999999999998" width="100" height="40" as="geometry" />
        </mxCell>
        <mxCell id="y2G0NDdtF5iTaBQ4Nq8z-12" value="" style="edgeStyle=orthogonalEdgeStyle;rounded=1;orthogonalLoop=1;jettySize=auto;html=1;" edge="1" parent="WIyWlLk6GJQsqaUBKTNV-1">
          <mxGeometry relative="1" as="geometry">
            <mxPoint x="-746.5" y="-90" as="targetPoint" />
          </mxGeometry>
        </mxCell>
        <mxCell id="h55tvgQfYBZGvIcUPzXj-218" value="&lt;b style=&quot;font-size: 18px;&quot;&gt;Students&lt;/b&gt;" style="rounded=1;arcSize=10;whiteSpace=wrap;html=1;align=center;labelBackgroundColor=none;fillColor=#B7272A;strokeColor=#b85450;fontColor=#FFFFFF;" vertex="1" parent="WIyWlLk6GJQsqaUBKTNV-1">
          <mxGeometry x="-93.5" y="-82.44999999999999" width="150" height="70" as="geometry" />
        </mxCell>
        <mxCell id="h55tvgQfYBZGvIcUPzXj-219" value="" style="endArrow=none;html=1;rounded=1;entryX=0.5;entryY=0;entryDx=0;entryDy=0;exitX=0.5;exitY=1;exitDx=0;exitDy=0;labelBackgroundColor=none;fontColor=default;" edge="1" parent="WIyWlLk6GJQsqaUBKTNV-1" source="h55tvgQfYBZGvIcUPzXj-210" target="h55tvgQfYBZGvIcUPzXj-218">
          <mxGeometry relative="1" as="geometry">
            <mxPoint x="-172" y="-173.22" as="sourcePoint" />
            <mxPoint x="-12" y="-173.22" as="targetPoint" />
          </mxGeometry>
        </mxCell>
        <mxCell id="h55tvgQfYBZGvIcUPzXj-225" value="" style="endArrow=none;html=1;rounded=1;labelBackgroundColor=none;fontColor=default;entryX=0.48;entryY=-0.003;entryDx=0;entryDy=0;entryPerimeter=0;exitX=0.267;exitY=0.944;exitDx=0;exitDy=0;exitPerimeter=0;" edge="1" parent="WIyWlLk6GJQsqaUBKTNV-1" source="h55tvgQfYBZGvIcUPzXj-206" target="y2G0NDdtF5iTaBQ4Nq8z-0">
          <mxGeometry relative="1" as="geometry">
            <mxPoint x="910" y="-650" as="sourcePoint" />
            <mxPoint x="750" y="-470" as="targetPoint" />
          </mxGeometry>
        </mxCell>
        <mxCell id="h55tvgQfYBZGvIcUPzXj-226" value="" style="endArrow=none;html=1;rounded=1;labelBackgroundColor=none;fontColor=default;exitX=0.423;exitY=1.004;exitDx=0;exitDy=0;entryX=0.486;entryY=-0.013;entryDx=0;entryDy=0;entryPerimeter=0;exitPerimeter=0;" edge="1" parent="WIyWlLk6GJQsqaUBKTNV-1" source="h55tvgQfYBZGvIcUPzXj-203" target="y2G0NDdtF5iTaBQ4Nq8z-0">
          <mxGeometry relative="1" as="geometry">
            <mxPoint x="761" y="-330" as="sourcePoint" />
            <mxPoint x="720" y="-470" as="targetPoint" />
          </mxGeometry>
        </mxCell>
        <mxCell id="h55tvgQfYBZGvIcUPzXj-250" value="&lt;font style=&quot;font-size: 18px;&quot;&gt;&lt;b&gt;Dept_ID&lt;/b&gt;&lt;/font&gt;" style="ellipse;whiteSpace=wrap;html=1;align=center;fontStyle=4;labelBackgroundColor=none;fillColor=#E6E6E6;strokeColor=#666666;rounded=1;fontColor=#333333;" vertex="1" parent="WIyWlLk6GJQsqaUBKTNV-1">
          <mxGeometry x="240" y="260" width="100" height="40" as="geometry" />
        </mxCell>
        <mxCell id="h55tvgQfYBZGvIcUPzXj-251" value="&lt;span style=&quot;font-size: 16px;&quot;&gt;&lt;b&gt;Dept_Name&lt;/b&gt;&lt;/span&gt;" style="ellipse;whiteSpace=wrap;html=1;align=center;rounded=1;labelBackgroundColor=none;fillColor=#E6E6E6;strokeColor=#666666;fontColor=#333333;" vertex="1" parent="WIyWlLk6GJQsqaUBKTNV-1">
          <mxGeometry x="364" y="260" width="100" height="40" as="geometry" />
        </mxCell>
        <mxCell id="h55tvgQfYBZGvIcUPzXj-280" value="&lt;span style=&quot;font-size: 18px;&quot;&gt;&lt;b&gt;Course&lt;/b&gt;&lt;/span&gt;" style="rounded=1;arcSize=10;whiteSpace=wrap;html=1;align=center;labelBackgroundColor=none;fillColor=#B7272A;strokeColor=#b85450;fontColor=#FFFFFF;" vertex="1" parent="WIyWlLk6GJQsqaUBKTNV-1">
          <mxGeometry x="1455" y="141" width="130" height="70" as="geometry" />
        </mxCell>
        <mxCell id="h55tvgQfYBZGvIcUPzXj-281" value="&lt;b style=&quot;font-size: 16px;&quot;&gt;&lt;u&gt;Crs_ID&lt;/u&gt;&lt;/b&gt;" style="ellipse;whiteSpace=wrap;html=1;align=center;fontStyle=4;rounded=1;labelBackgroundColor=none;fillColor=#E6E6E6;strokeColor=#666666;fontColor=#333333;" vertex="1" parent="WIyWlLk6GJQsqaUBKTNV-1">
          <mxGeometry x="1635" y="140" width="100" height="40" as="geometry" />
        </mxCell>
        <mxCell id="h55tvgQfYBZGvIcUPzXj-284" value="&lt;span style=&quot;font-size: 16px;&quot;&gt;Hours&lt;/span&gt;" style="ellipse;whiteSpace=wrap;html=1;align=center;rounded=1;fontStyle=1;labelBackgroundColor=none;fillColor=#E6E6E6;strokeColor=#666666;fontColor=#333333;" vertex="1" parent="WIyWlLk6GJQsqaUBKTNV-1">
          <mxGeometry x="1640" y="250" width="90" height="40" as="geometry" />
        </mxCell>
        <mxCell id="h55tvgQfYBZGvIcUPzXj-285" value="&lt;span style=&quot;font-size: 16px;&quot;&gt;Crs_Desc&lt;/span&gt;" style="ellipse;whiteSpace=wrap;html=1;align=center;rounded=1;fontStyle=1;labelBackgroundColor=none;fillColor=#E6E6E6;strokeColor=#666666;fontColor=#333333;" vertex="1" parent="WIyWlLk6GJQsqaUBKTNV-1">
          <mxGeometry x="1640" y="80" width="90" height="40" as="geometry" />
        </mxCell>
        <mxCell id="h55tvgQfYBZGvIcUPzXj-287" value="&lt;span style=&quot;font-size: 16px;&quot;&gt;Crs_Name&lt;/span&gt;" style="ellipse;whiteSpace=wrap;html=1;align=center;rounded=1;fontStyle=1;labelBackgroundColor=none;fillColor=#E6E6E6;strokeColor=#666666;fontColor=#333333;" vertex="1" parent="WIyWlLk6GJQsqaUBKTNV-1">
          <mxGeometry x="1640" y="200" width="90" height="40" as="geometry" />
        </mxCell>
        <mxCell id="h55tvgQfYBZGvIcUPzXj-288" value="" style="endArrow=none;html=1;rounded=1;entryX=1;entryY=0.5;entryDx=0;entryDy=0;exitX=0;exitY=0.5;exitDx=0;exitDy=0;labelBackgroundColor=none;fontColor=default;" edge="1" parent="WIyWlLk6GJQsqaUBKTNV-1" source="h55tvgQfYBZGvIcUPzXj-285" target="h55tvgQfYBZGvIcUPzXj-280">
          <mxGeometry relative="1" as="geometry">
            <mxPoint x="1465" y="150" as="sourcePoint" />
            <mxPoint x="1529" y="273" as="targetPoint" />
          </mxGeometry>
        </mxCell>
        <mxCell id="h55tvgQfYBZGvIcUPzXj-289" value="" style="endArrow=none;html=1;rounded=1;labelBackgroundColor=none;fontColor=default;exitX=0;exitY=0.5;exitDx=0;exitDy=0;entryX=1;entryY=0.5;entryDx=0;entryDy=0;" edge="1" parent="WIyWlLk6GJQsqaUBKTNV-1" source="h55tvgQfYBZGvIcUPzXj-281" target="h55tvgQfYBZGvIcUPzXj-280">
          <mxGeometry relative="1" as="geometry">
            <mxPoint x="1665" y="220" as="sourcePoint" />
            <mxPoint x="1562" y="305" as="targetPoint" />
            <Array as="points" />
          </mxGeometry>
        </mxCell>
        <mxCell id="h55tvgQfYBZGvIcUPzXj-290" value="" style="endArrow=none;html=1;rounded=1;entryX=1;entryY=0.5;entryDx=0;entryDy=0;exitX=0;exitY=0.5;exitDx=0;exitDy=0;labelBackgroundColor=none;fontColor=default;" edge="1" parent="WIyWlLk6GJQsqaUBKTNV-1" source="h55tvgQfYBZGvIcUPzXj-287" target="h55tvgQfYBZGvIcUPzXj-280">
          <mxGeometry relative="1" as="geometry">
            <mxPoint x="1686" y="280" as="sourcePoint" />
            <mxPoint x="1615" y="353" as="targetPoint" />
          </mxGeometry>
        </mxCell>
        <mxCell id="h55tvgQfYBZGvIcUPzXj-293" value="" style="endArrow=none;html=1;rounded=1;entryX=1;entryY=0.5;entryDx=0;entryDy=0;labelBackgroundColor=none;fontColor=default;exitX=0;exitY=0.5;exitDx=0;exitDy=0;" edge="1" parent="WIyWlLk6GJQsqaUBKTNV-1" source="h55tvgQfYBZGvIcUPzXj-284" target="h55tvgQfYBZGvIcUPzXj-280">
          <mxGeometry relative="1" as="geometry">
            <mxPoint x="1650" y="340" as="sourcePoint" />
            <mxPoint x="1575" y="413" as="targetPoint" />
          </mxGeometry>
        </mxCell>
        <mxCell id="h55tvgQfYBZGvIcUPzXj-294" value="" style="endArrow=none;html=1;rounded=1;entryX=0.5;entryY=1;entryDx=0;entryDy=0;exitX=0.712;exitY=0.882;exitDx=0;exitDy=0;exitPerimeter=0;labelBackgroundColor=none;fontColor=default;" edge="1" parent="WIyWlLk6GJQsqaUBKTNV-1" source="h55tvgQfYBZGvIcUPzXj-250" target="h55tvgQfYBZGvIcUPzXj-251">
          <mxGeometry relative="1" as="geometry">
            <mxPoint x="282" y="346" as="sourcePoint" />
            <mxPoint x="232" y="310" as="targetPoint" />
            <Array as="points">
              <mxPoint x="357" y="360" />
            </Array>
          </mxGeometry>
        </mxCell>
        <mxCell id="h55tvgQfYBZGvIcUPzXj-295" value="" style="endArrow=none;html=1;rounded=1;entryX=0.5;entryY=1;entryDx=0;entryDy=0;exitX=0.01;exitY=0.424;exitDx=0;exitDy=0;labelBackgroundColor=none;fontColor=default;fillColor=#d5e8d4;strokeColor=#82b366;exitPerimeter=0;" edge="1" parent="WIyWlLk6GJQsqaUBKTNV-1" source="h55tvgQfYBZGvIcUPzXj-156">
          <mxGeometry relative="1" as="geometry">
            <mxPoint x="1385" y="1322" as="sourcePoint" />
            <mxPoint x="1211" y="1220" as="targetPoint" />
          </mxGeometry>
        </mxCell>
        <mxCell id="h55tvgQfYBZGvIcUPzXj-296" value="" style="endArrow=none;html=1;rounded=1;entryX=0.5;entryY=1;entryDx=0;entryDy=0;exitX=0.312;exitY=0.044;exitDx=0;exitDy=0;labelBackgroundColor=none;fontColor=default;fillColor=#d5e8d4;strokeColor=#82b366;exitPerimeter=0;" edge="1" parent="WIyWlLk6GJQsqaUBKTNV-1" source="h55tvgQfYBZGvIcUPzXj-157">
          <mxGeometry relative="1" as="geometry">
            <mxPoint x="1325" y="1342" as="sourcePoint" />
            <mxPoint x="1211" y="1220" as="targetPoint" />
          </mxGeometry>
        </mxCell>
        <mxCell id="h55tvgQfYBZGvIcUPzXj-297" value="" style="endArrow=none;html=1;rounded=1;entryX=0.5;entryY=1;entryDx=0;entryDy=0;exitX=0.568;exitY=0.033;exitDx=0;exitDy=0;exitPerimeter=0;labelBackgroundColor=none;fontColor=default;fillColor=#d5e8d4;strokeColor=#82b366;" edge="1" parent="WIyWlLk6GJQsqaUBKTNV-1" source="h55tvgQfYBZGvIcUPzXj-155">
          <mxGeometry relative="1" as="geometry">
            <mxPoint x="1295" y="1352" as="sourcePoint" />
            <mxPoint x="1211" y="1220" as="targetPoint" />
          </mxGeometry>
        </mxCell>
        <mxCell id="h55tvgQfYBZGvIcUPzXj-298" value="" style="endArrow=none;html=1;rounded=1;exitX=1;exitY=0;exitDx=0;exitDy=0;labelBackgroundColor=none;fontColor=default;fillColor=#d5e8d4;strokeColor=#82b366;" edge="1" parent="WIyWlLk6GJQsqaUBKTNV-1" source="h55tvgQfYBZGvIcUPzXj-159">
          <mxGeometry relative="1" as="geometry">
            <mxPoint x="1205" y="1352" as="sourcePoint" />
            <mxPoint x="1215" y="1220" as="targetPoint" />
          </mxGeometry>
        </mxCell>
        <mxCell id="h55tvgQfYBZGvIcUPzXj-299" value="" style="endArrow=none;html=1;rounded=1;exitX=0.999;exitY=0.406;exitDx=0;exitDy=0;exitPerimeter=0;entryX=0.5;entryY=1;entryDx=0;entryDy=0;labelBackgroundColor=none;fontColor=default;fillColor=#d5e8d4;strokeColor=#82b366;" edge="1" parent="WIyWlLk6GJQsqaUBKTNV-1" source="h55tvgQfYBZGvIcUPzXj-162">
          <mxGeometry relative="1" as="geometry">
            <mxPoint x="1095" y="1296" as="sourcePoint" />
            <mxPoint x="1211" y="1220" as="targetPoint" />
          </mxGeometry>
        </mxCell>
        <mxCell id="h55tvgQfYBZGvIcUPzXj-300" value="&lt;span style=&quot;font-size: 18px;&quot;&gt;&lt;b&gt;Topic&lt;/b&gt;&lt;/span&gt;" style="rounded=1;arcSize=10;whiteSpace=wrap;html=1;align=center;labelBackgroundColor=none;fillColor=#B7272A;strokeColor=#b85450;fontColor=#FFFFFF;" vertex="1" parent="WIyWlLk6GJQsqaUBKTNV-1">
          <mxGeometry x="1460" y="527.93" width="130" height="70" as="geometry" />
        </mxCell>
        <mxCell id="h55tvgQfYBZGvIcUPzXj-301" value="&lt;span style=&quot;font-size: 16px;&quot;&gt;&lt;b&gt;Name&lt;/b&gt;&lt;/span&gt;" style="ellipse;whiteSpace=wrap;html=1;align=center;rounded=1;labelBackgroundColor=none;fillColor=#E6E6E6;strokeColor=#82b366;" vertex="1" parent="WIyWlLk6GJQsqaUBKTNV-1">
          <mxGeometry x="1649" y="572.93" width="96" height="40" as="geometry" />
        </mxCell>
        <mxCell id="h55tvgQfYBZGvIcUPzXj-302" value="" style="endArrow=none;html=1;rounded=1;entryX=1;entryY=0.5;entryDx=0;entryDy=0;labelBackgroundColor=none;fontColor=default;exitX=0;exitY=0.5;exitDx=0;exitDy=0;" edge="1" parent="WIyWlLk6GJQsqaUBKTNV-1" source="h55tvgQfYBZGvIcUPzXj-301" target="h55tvgQfYBZGvIcUPzXj-300">
          <mxGeometry relative="1" as="geometry">
            <mxPoint x="1612" y="583.93" as="sourcePoint" />
            <mxPoint x="1550" y="547.93" as="targetPoint" />
          </mxGeometry>
        </mxCell>
        <mxCell id="h55tvgQfYBZGvIcUPzXj-303" value="&lt;span style=&quot;font-size: 18px;&quot;&gt;&lt;b&gt;Manager&lt;/b&gt;&lt;/span&gt;" style="rounded=1;arcSize=10;whiteSpace=wrap;html=1;align=center;labelBackgroundColor=none;fillColor=#B7272A;strokeColor=#b85450;fontColor=#FFFFFF;" vertex="1" parent="WIyWlLk6GJQsqaUBKTNV-1">
          <mxGeometry x="560.5" y="-80" width="160" height="70" as="geometry" />
        </mxCell>
        <mxCell id="h55tvgQfYBZGvIcUPzXj-309" style="edgeStyle=orthogonalEdgeStyle;rounded=1;orthogonalLoop=1;jettySize=auto;html=1;exitX=0.5;exitY=1;exitDx=0;exitDy=0;labelBackgroundColor=none;fontColor=default;fillColor=#d5e8d4;strokeColor=#82b366;" edge="1" parent="WIyWlLk6GJQsqaUBKTNV-1">
          <mxGeometry relative="1" as="geometry">
            <mxPoint x="105" y="-140.00000000000023" as="sourcePoint" />
            <mxPoint x="105" y="-140.00000000000023" as="targetPoint" />
          </mxGeometry>
        </mxCell>
        <mxCell id="h55tvgQfYBZGvIcUPzXj-312" value="&lt;b style=&quot;font-size: 16px;&quot;&gt;&lt;u&gt;M_ID&lt;/u&gt;&lt;/b&gt;" style="ellipse;whiteSpace=wrap;html=1;align=center;fontStyle=4;rounded=1;labelBackgroundColor=none;fillColor=#E6E6E6;strokeColor=#666666;fontColor=#333333;" vertex="1" parent="WIyWlLk6GJQsqaUBKTNV-1">
          <mxGeometry x="580" y="-213.74" width="100" height="40" as="geometry" />
        </mxCell>
        <mxCell id="h55tvgQfYBZGvIcUPzXj-350" value="&lt;b&gt;&lt;font style=&quot;font-size: 16px;&quot;&gt;Teach&lt;/font&gt;&lt;/b&gt;" style="shape=rhombus;perimeter=rhombusPerimeter;whiteSpace=wrap;html=1;align=center;labelBackgroundColor=none;fillColor=#f8cecc;strokeColor=#b85450;rounded=1;" vertex="1" parent="WIyWlLk6GJQsqaUBKTNV-1">
          <mxGeometry x="1320" y="-12.449999999999989" width="140" height="80" as="geometry" />
        </mxCell>
        <mxCell id="h55tvgQfYBZGvIcUPzXj-357" value="&lt;span style=&quot;font-size: 16px;&quot;&gt;&lt;b&gt;work&lt;/b&gt;&lt;/span&gt;" style="shape=rhombus;perimeter=rhombusPerimeter;whiteSpace=wrap;html=1;align=center;labelBackgroundColor=none;fillColor=#f8cecc;strokeColor=#b85450;rounded=1;" vertex="1" parent="WIyWlLk6GJQsqaUBKTNV-1">
          <mxGeometry x="885" y="220" width="140" height="80" as="geometry" />
        </mxCell>
        <mxCell id="h55tvgQfYBZGvIcUPzXj-358" value="" style="endArrow=none;html=1;rounded=1;entryX=0.5;entryY=0;entryDx=0;entryDy=0;labelBackgroundColor=none;fontColor=default;exitX=0.75;exitY=1;exitDx=0;exitDy=0;" edge="1" parent="WIyWlLk6GJQsqaUBKTNV-1" source="h55tvgQfYBZGvIcUPzXj-52" target="h55tvgQfYBZGvIcUPzXj-350">
          <mxGeometry relative="1" as="geometry">
            <mxPoint x="1230" y="-10" as="sourcePoint" />
            <mxPoint x="1315" y="10" as="targetPoint" />
          </mxGeometry>
        </mxCell>
        <mxCell id="h55tvgQfYBZGvIcUPzXj-359" value="M" style="resizable=0;html=1;whiteSpace=wrap;align=left;verticalAlign=bottom;labelBackgroundColor=none;rounded=1;" connectable="0" vertex="1" parent="h55tvgQfYBZGvIcUPzXj-358">
          <mxGeometry x="-1" relative="1" as="geometry" />
        </mxCell>
        <mxCell id="h55tvgQfYBZGvIcUPzXj-360" value="N" style="resizable=0;html=1;whiteSpace=wrap;align=right;verticalAlign=bottom;labelBackgroundColor=none;rounded=1;" connectable="0" vertex="1" parent="h55tvgQfYBZGvIcUPzXj-358">
          <mxGeometry x="1" relative="1" as="geometry" />
        </mxCell>
        <mxCell id="h55tvgQfYBZGvIcUPzXj-364" value="" style="endArrow=none;html=1;rounded=1;exitX=0.5;exitY=0;exitDx=0;exitDy=0;labelBackgroundColor=none;fontColor=default;entryX=0.158;entryY=0.976;entryDx=0;entryDy=0;entryPerimeter=0;" edge="1" parent="WIyWlLk6GJQsqaUBKTNV-1" source="h55tvgQfYBZGvIcUPzXj-357" target="h55tvgQfYBZGvIcUPzXj-52">
          <mxGeometry relative="1" as="geometry">
            <mxPoint x="1111.2500000000005" y="362.66" as="sourcePoint" />
            <mxPoint x="1146" y="190.00000000000014" as="targetPoint" />
            <Array as="points">
              <mxPoint x="955" y="170" />
              <mxPoint x="1140" y="170" />
            </Array>
          </mxGeometry>
        </mxCell>
        <mxCell id="h55tvgQfYBZGvIcUPzXj-365" value="N" style="resizable=0;html=1;whiteSpace=wrap;align=right;verticalAlign=bottom;labelBackgroundColor=none;rounded=1;" connectable="0" vertex="1" parent="h55tvgQfYBZGvIcUPzXj-364">
          <mxGeometry x="1" relative="1" as="geometry" />
        </mxCell>
        <mxCell id="h55tvgQfYBZGvIcUPzXj-368" value="&lt;b&gt;&lt;font style=&quot;font-size: 16px;&quot;&gt;Has&lt;/font&gt;&lt;/b&gt;" style="shape=rhombus;perimeter=rhombusPerimeter;whiteSpace=wrap;html=1;align=center;labelBackgroundColor=none;fillColor=#f8cecc;strokeColor=#b85450;rounded=1;" vertex="1" parent="WIyWlLk6GJQsqaUBKTNV-1">
          <mxGeometry x="1445" y="360" width="140" height="80" as="geometry" />
        </mxCell>
        <mxCell id="h55tvgQfYBZGvIcUPzXj-369" value="" style="endArrow=none;html=1;rounded=1;entryX=0.5;entryY=0;entryDx=0;entryDy=0;labelBackgroundColor=none;fontColor=default;" edge="1" parent="WIyWlLk6GJQsqaUBKTNV-1" source="h55tvgQfYBZGvIcUPzXj-280" target="h55tvgQfYBZGvIcUPzXj-368">
          <mxGeometry relative="1" as="geometry">
            <mxPoint x="1405" y="359.16999999999996" as="sourcePoint" />
            <mxPoint x="1565" y="359.16999999999996" as="targetPoint" />
          </mxGeometry>
        </mxCell>
        <mxCell id="h55tvgQfYBZGvIcUPzXj-370" value="N" style="resizable=0;html=1;whiteSpace=wrap;align=right;verticalAlign=bottom;labelBackgroundColor=none;rounded=1;" connectable="0" vertex="1" parent="h55tvgQfYBZGvIcUPzXj-369">
          <mxGeometry x="1" relative="1" as="geometry" />
        </mxCell>
        <mxCell id="h55tvgQfYBZGvIcUPzXj-374" value="" style="endArrow=none;html=1;rounded=1;exitX=0.423;exitY=0;exitDx=0;exitDy=0;exitPerimeter=0;labelBackgroundColor=none;fontColor=default;entryX=0.5;entryY=1;entryDx=0;entryDy=0;" edge="1" parent="WIyWlLk6GJQsqaUBKTNV-1" source="h55tvgQfYBZGvIcUPzXj-300" target="h55tvgQfYBZGvIcUPzXj-368">
          <mxGeometry relative="1" as="geometry">
            <mxPoint x="1345" y="532.93" as="sourcePoint" />
            <mxPoint x="1530" y="535.0000000000001" as="targetPoint" />
          </mxGeometry>
        </mxCell>
        <mxCell id="h55tvgQfYBZGvIcUPzXj-375" value="" style="shape=link;html=1;rounded=1;entryX=0.423;entryY=-0.014;entryDx=0;entryDy=0;exitX=0.5;exitY=1;exitDx=0;exitDy=0;labelBackgroundColor=none;fontColor=default;entryPerimeter=0;" edge="1" parent="WIyWlLk6GJQsqaUBKTNV-1" source="h55tvgQfYBZGvIcUPzXj-350" target="h55tvgQfYBZGvIcUPzXj-280">
          <mxGeometry relative="1" as="geometry">
            <mxPoint x="1270" y="400" as="sourcePoint" />
            <mxPoint x="1430" y="400" as="targetPoint" />
            <Array as="points">
              <mxPoint x="1390" y="110" />
              <mxPoint x="1510" y="110" />
            </Array>
          </mxGeometry>
        </mxCell>
        <mxCell id="h55tvgQfYBZGvIcUPzXj-376" value="M" style="resizable=0;html=1;whiteSpace=wrap;align=left;verticalAlign=bottom;labelBackgroundColor=none;rounded=1;" connectable="0" vertex="1" parent="h55tvgQfYBZGvIcUPzXj-375">
          <mxGeometry x="-1" relative="1" as="geometry" />
        </mxCell>
        <mxCell id="h55tvgQfYBZGvIcUPzXj-377" value="N" style="resizable=0;html=1;whiteSpace=wrap;align=right;verticalAlign=bottom;labelBackgroundColor=none;rounded=1;" connectable="0" vertex="1" parent="h55tvgQfYBZGvIcUPzXj-375">
          <mxGeometry x="1" relative="1" as="geometry" />
        </mxCell>
        <mxCell id="h55tvgQfYBZGvIcUPzXj-378" value="" style="endArrow=none;html=1;rounded=1;exitX=1.001;exitY=0.648;exitDx=0;exitDy=0;labelBackgroundColor=none;fontColor=default;exitPerimeter=0;entryX=0;entryY=0.5;entryDx=0;entryDy=0;" edge="1" parent="WIyWlLk6GJQsqaUBKTNV-1" source="h55tvgQfYBZGvIcUPzXj-74" target="h55tvgQfYBZGvIcUPzXj-357">
          <mxGeometry relative="1" as="geometry">
            <mxPoint x="840" y="370" as="sourcePoint" />
            <mxPoint x="1000" y="370" as="targetPoint" />
            <Array as="points">
              <mxPoint x="480" y="405" />
              <mxPoint x="550" y="405" />
              <mxPoint x="830" y="405" />
              <mxPoint x="830" y="260" />
            </Array>
          </mxGeometry>
        </mxCell>
        <mxCell id="h55tvgQfYBZGvIcUPzXj-379" value="&lt;span style=&quot;font-size: 18px;&quot;&gt;&lt;b&gt;Exam&lt;/b&gt;&lt;/span&gt;" style="rounded=1;arcSize=10;whiteSpace=wrap;html=1;align=center;labelBackgroundColor=none;fillColor=#B7272A;strokeColor=#b85450;fontColor=#FFFFFF;" vertex="1" parent="WIyWlLk6GJQsqaUBKTNV-1">
          <mxGeometry x="1460.07" y="845" width="150" height="70" as="geometry" />
        </mxCell>
        <mxCell id="h55tvgQfYBZGvIcUPzXj-380" value="&lt;b style=&quot;font-size: 16px;&quot;&gt;&lt;u&gt;Exam_ID&lt;/u&gt;&lt;/b&gt;" style="ellipse;whiteSpace=wrap;html=1;align=center;fontStyle=4;rounded=1;labelBackgroundColor=none;fillColor=#E6E6E6;strokeColor=#d6b656;" vertex="1" parent="WIyWlLk6GJQsqaUBKTNV-1">
          <mxGeometry x="1740.07" y="895" width="100" height="40" as="geometry" />
        </mxCell>
        <mxCell id="h55tvgQfYBZGvIcUPzXj-381" value="&lt;span style=&quot;font-size: 16px;&quot;&gt;Exam_Type&lt;/span&gt;" style="ellipse;whiteSpace=wrap;html=1;align=center;rounded=1;fontStyle=1;labelBackgroundColor=none;fillColor=#E6E6E6;strokeColor=#d6b656;" vertex="1" parent="WIyWlLk6GJQsqaUBKTNV-1">
          <mxGeometry x="1735.07" y="835" width="110" height="40" as="geometry" />
        </mxCell>
        <mxCell id="h55tvgQfYBZGvIcUPzXj-382" value="&lt;span style=&quot;font-size: 16px;&quot;&gt;Duration&lt;/span&gt;" style="ellipse;whiteSpace=wrap;html=1;align=center;rounded=1;fontStyle=1;labelBackgroundColor=none;fillColor=#E6E6E6;strokeColor=#d6b656;" vertex="1" parent="WIyWlLk6GJQsqaUBKTNV-1">
          <mxGeometry x="1730" y="945" width="75.07" height="46.92" as="geometry" />
        </mxCell>
        <mxCell id="h55tvgQfYBZGvIcUPzXj-383" value="&lt;span style=&quot;font-size: 16px;&quot;&gt;Date&lt;/span&gt;" style="ellipse;whiteSpace=wrap;html=1;align=center;rounded=1;fontStyle=1;labelBackgroundColor=none;fillColor=#E6E6E6;strokeColor=#d6b656;" vertex="1" parent="WIyWlLk6GJQsqaUBKTNV-1">
          <mxGeometry x="1635.07" y="995" width="90" height="40" as="geometry" />
        </mxCell>
        <mxCell id="h55tvgQfYBZGvIcUPzXj-387" value="" style="endArrow=none;html=1;rounded=1;exitX=0.02;exitY=0.596;exitDx=0;exitDy=0;labelBackgroundColor=none;fontColor=default;entryX=1;entryY=0.5;entryDx=0;entryDy=0;fillColor=#d5e8d4;strokeColor=#82b366;exitPerimeter=0;" edge="1" parent="WIyWlLk6GJQsqaUBKTNV-1" source="h55tvgQfYBZGvIcUPzXj-381">
          <mxGeometry relative="1" as="geometry">
            <mxPoint x="1746.07" y="830" as="sourcePoint" />
            <mxPoint x="1610.0699999999997" y="875" as="targetPoint" />
          </mxGeometry>
        </mxCell>
        <mxCell id="h55tvgQfYBZGvIcUPzXj-388" value="" style="endArrow=none;html=1;rounded=1;exitX=0;exitY=0.5;exitDx=0;exitDy=0;labelBackgroundColor=none;fontColor=default;entryX=1;entryY=0.5;entryDx=0;entryDy=0;fillColor=#d5e8d4;strokeColor=#82b366;" edge="1" parent="WIyWlLk6GJQsqaUBKTNV-1" source="h55tvgQfYBZGvIcUPzXj-380">
          <mxGeometry relative="1" as="geometry">
            <mxPoint x="1696.07" y="870" as="sourcePoint" />
            <mxPoint x="1610.0699999999997" y="875" as="targetPoint" />
            <Array as="points" />
          </mxGeometry>
        </mxCell>
        <mxCell id="h55tvgQfYBZGvIcUPzXj-389" value="" style="endArrow=none;html=1;rounded=1;exitX=0;exitY=0.5;exitDx=0;exitDy=0;labelBackgroundColor=none;fontColor=default;entryX=1;entryY=0.5;entryDx=0;entryDy=0;fillColor=#d5e8d4;strokeColor=#82b366;" edge="1" parent="WIyWlLk6GJQsqaUBKTNV-1" source="h55tvgQfYBZGvIcUPzXj-382">
          <mxGeometry relative="1" as="geometry">
            <mxPoint x="1696.07" y="900" as="sourcePoint" />
            <mxPoint x="1610.0699999999997" y="875" as="targetPoint" />
          </mxGeometry>
        </mxCell>
        <mxCell id="h55tvgQfYBZGvIcUPzXj-390" value="" style="endArrow=none;html=1;rounded=1;exitX=0.51;exitY=0.004;exitDx=0;exitDy=0;labelBackgroundColor=none;fontColor=default;entryX=1;entryY=0.5;entryDx=0;entryDy=0;fillColor=#d5e8d4;strokeColor=#82b366;exitPerimeter=0;" edge="1" parent="WIyWlLk6GJQsqaUBKTNV-1" source="h55tvgQfYBZGvIcUPzXj-383">
          <mxGeometry relative="1" as="geometry">
            <mxPoint x="1686.07" y="910" as="sourcePoint" />
            <mxPoint x="1610.0699999999997" y="875" as="targetPoint" />
          </mxGeometry>
        </mxCell>
        <mxCell id="h55tvgQfYBZGvIcUPzXj-392" value="&lt;span style=&quot;font-size: 16px;&quot;&gt;Number_MCQ&lt;/span&gt;" style="ellipse;whiteSpace=wrap;html=1;align=center;rounded=1;fontStyle=1;labelBackgroundColor=none;fillColor=#E6E6E6;strokeColor=#d6b656;" vertex="1" parent="WIyWlLk6GJQsqaUBKTNV-1">
          <mxGeometry x="1695" y="775" width="125" height="40" as="geometry" />
        </mxCell>
        <mxCell id="h55tvgQfYBZGvIcUPzXj-393" value="&lt;span style=&quot;font-size: 16px;&quot;&gt;Number_T/F&lt;/span&gt;" style="ellipse;whiteSpace=wrap;html=1;align=center;rounded=1;fontStyle=1;labelBackgroundColor=none;fillColor=#E6E6E6;strokeColor=#d6b656;" vertex="1" parent="WIyWlLk6GJQsqaUBKTNV-1">
          <mxGeometry x="1650" y="725" width="110" height="40" as="geometry" />
        </mxCell>
        <mxCell id="h55tvgQfYBZGvIcUPzXj-394" value="" style="endArrow=none;html=1;rounded=1;exitX=0.201;exitY=0.887;exitDx=0;exitDy=0;entryX=1;entryY=0.5;entryDx=0;entryDy=0;labelBackgroundColor=none;fontColor=default;fillColor=#d5e8d4;strokeColor=#82b366;exitPerimeter=0;" edge="1" parent="WIyWlLk6GJQsqaUBKTNV-1" source="h55tvgQfYBZGvIcUPzXj-392">
          <mxGeometry relative="1" as="geometry">
            <mxPoint x="1737.07" y="750" as="sourcePoint" />
            <mxPoint x="1610.0699999999997" y="875" as="targetPoint" />
          </mxGeometry>
        </mxCell>
        <mxCell id="h55tvgQfYBZGvIcUPzXj-395" value="" style="endArrow=none;html=1;rounded=1;exitX=0.238;exitY=0.925;exitDx=0;exitDy=0;exitPerimeter=0;entryX=1;entryY=0.5;entryDx=0;entryDy=0;labelBackgroundColor=none;fontColor=default;fillColor=#d5e8d4;strokeColor=#82b366;" edge="1" parent="WIyWlLk6GJQsqaUBKTNV-1" source="h55tvgQfYBZGvIcUPzXj-393">
          <mxGeometry relative="1" as="geometry">
            <mxPoint x="1707.07" y="740" as="sourcePoint" />
            <mxPoint x="1610.0699999999997" y="875" as="targetPoint" />
          </mxGeometry>
        </mxCell>
        <mxCell id="h55tvgQfYBZGvIcUPzXj-396" value="&lt;span style=&quot;font-size: 16px;&quot;&gt;&lt;b&gt;Supervise&amp;nbsp;&lt;/b&gt;&lt;/span&gt;" style="shape=rhombus;perimeter=rhombusPerimeter;whiteSpace=wrap;html=1;align=center;labelBackgroundColor=none;fillColor=#f8cecc;strokeColor=#b85450;rounded=1;" vertex="1" parent="WIyWlLk6GJQsqaUBKTNV-1">
          <mxGeometry x="765" y="60" width="140" height="80" as="geometry" />
        </mxCell>
        <mxCell id="h55tvgQfYBZGvIcUPzXj-397" value="" style="endArrow=none;html=1;rounded=1;exitX=1;exitY=0.5;exitDx=0;exitDy=0;labelBackgroundColor=none;fontColor=default;entryX=0.016;entryY=0.933;entryDx=0;entryDy=0;entryPerimeter=0;" edge="1" parent="WIyWlLk6GJQsqaUBKTNV-1" source="h55tvgQfYBZGvIcUPzXj-396" target="h55tvgQfYBZGvIcUPzXj-52">
          <mxGeometry relative="1" as="geometry">
            <mxPoint x="970" y="190" as="sourcePoint" />
            <mxPoint x="1100" y="170" as="targetPoint" />
            <Array as="points">
              <mxPoint x="990" y="100" />
              <mxPoint x="990" y="-16" />
            </Array>
          </mxGeometry>
        </mxCell>
        <mxCell id="h55tvgQfYBZGvIcUPzXj-398" value="" style="endArrow=none;html=1;rounded=1;entryX=0;entryY=0.5;entryDx=0;entryDy=0;labelBackgroundColor=none;fontColor=default;" edge="1" parent="WIyWlLk6GJQsqaUBKTNV-1" target="h55tvgQfYBZGvIcUPzXj-396">
          <mxGeometry relative="1" as="geometry">
            <mxPoint x="431" y="390" as="sourcePoint" />
            <mxPoint x="1030" y="380" as="targetPoint" />
            <Array as="points">
              <mxPoint x="580" y="390" />
              <mxPoint x="680" y="390" />
              <mxPoint x="760" y="390" />
            </Array>
          </mxGeometry>
        </mxCell>
        <mxCell id="h55tvgQfYBZGvIcUPzXj-399" value="" style="endArrow=none;html=1;rounded=1;exitX=0.5;exitY=0;exitDx=0;exitDy=0;labelBackgroundColor=none;fontColor=default;entryX=0.5;entryY=1;entryDx=0;entryDy=0;" edge="1" parent="WIyWlLk6GJQsqaUBKTNV-1" source="h55tvgQfYBZGvIcUPzXj-396" target="h55tvgQfYBZGvIcUPzXj-400">
          <mxGeometry relative="1" as="geometry">
            <mxPoint x="825" y="40" as="sourcePoint" />
            <mxPoint x="895" y="-40" as="targetPoint" />
          </mxGeometry>
        </mxCell>
        <mxCell id="h55tvgQfYBZGvIcUPzXj-400" value="&lt;span style=&quot;font-size: 16px;&quot;&gt;&lt;b&gt;End_Date&lt;/b&gt;&lt;/span&gt;" style="ellipse;whiteSpace=wrap;html=1;align=center;rounded=1;labelBackgroundColor=none;fillColor=#E6E6E6;strokeColor=#666666;fontColor=#333333;" vertex="1" parent="WIyWlLk6GJQsqaUBKTNV-1">
          <mxGeometry x="835" y="-5" width="100" height="40" as="geometry" />
        </mxCell>
        <mxCell id="h55tvgQfYBZGvIcUPzXj-401" value="&lt;span style=&quot;font-size: 16px;&quot;&gt;&lt;b&gt;S_Date&lt;/b&gt;&lt;/span&gt;" style="ellipse;whiteSpace=wrap;html=1;align=center;rounded=1;labelBackgroundColor=none;fillColor=#E6E6E6;strokeColor=#666666;fontColor=#333333;" vertex="1" parent="WIyWlLk6GJQsqaUBKTNV-1">
          <mxGeometry x="725" y="-5" width="100" height="40" as="geometry" />
        </mxCell>
        <mxCell id="h55tvgQfYBZGvIcUPzXj-402" value="" style="endArrow=none;html=1;rounded=1;entryX=0.727;entryY=0.933;entryDx=0;entryDy=0;entryPerimeter=0;labelBackgroundColor=none;fontColor=default;" edge="1" parent="WIyWlLk6GJQsqaUBKTNV-1" target="h55tvgQfYBZGvIcUPzXj-401">
          <mxGeometry relative="1" as="geometry">
            <mxPoint x="835" y="60" as="sourcePoint" />
            <mxPoint x="840" y="-10" as="targetPoint" />
          </mxGeometry>
        </mxCell>
        <mxCell id="h55tvgQfYBZGvIcUPzXj-406" value="&lt;b&gt;&lt;font style=&quot;font-size: 16px;&quot;&gt;Create&amp;nbsp;&lt;/font&gt;&lt;/b&gt;" style="shape=rhombus;perimeter=rhombusPerimeter;whiteSpace=wrap;html=1;align=center;labelBackgroundColor=none;fillColor=#f8cecc;strokeColor=#b85450;rounded=1;" vertex="1" parent="WIyWlLk6GJQsqaUBKTNV-1">
          <mxGeometry x="980" y="699.9999999999999" width="120" height="60" as="geometry" />
        </mxCell>
        <mxCell id="h55tvgQfYBZGvIcUPzXj-407" value="" style="endArrow=none;html=1;rounded=1;entryX=0.5;entryY=0;entryDx=0;entryDy=0;labelBackgroundColor=none;fontColor=default;" edge="1" parent="WIyWlLk6GJQsqaUBKTNV-1" target="h55tvgQfYBZGvIcUPzXj-406">
          <mxGeometry relative="1" as="geometry">
            <mxPoint x="1160" y="-10" as="sourcePoint" />
            <mxPoint x="880" y="520" as="targetPoint" />
            <Array as="points">
              <mxPoint x="1160" y="270" />
              <mxPoint x="1040" y="270" />
            </Array>
          </mxGeometry>
        </mxCell>
        <mxCell id="h55tvgQfYBZGvIcUPzXj-408" value="" style="endArrow=none;html=1;rounded=1;exitX=0.5;exitY=1;exitDx=0;exitDy=0;entryX=0;entryY=0.25;entryDx=0;entryDy=0;labelBackgroundColor=none;fontColor=default;" edge="1" parent="WIyWlLk6GJQsqaUBKTNV-1" source="h55tvgQfYBZGvIcUPzXj-406" target="h55tvgQfYBZGvIcUPzXj-379">
          <mxGeometry relative="1" as="geometry">
            <mxPoint x="1205" y="620" as="sourcePoint" />
            <mxPoint x="1365" y="620" as="targetPoint" />
            <Array as="points">
              <mxPoint x="1040" y="863" />
            </Array>
          </mxGeometry>
        </mxCell>
        <mxCell id="h55tvgQfYBZGvIcUPzXj-409" value="N" style="resizable=0;html=1;whiteSpace=wrap;align=right;verticalAlign=bottom;labelBackgroundColor=none;rounded=1;" connectable="0" vertex="1" parent="h55tvgQfYBZGvIcUPzXj-408">
          <mxGeometry x="1" relative="1" as="geometry" />
        </mxCell>
        <mxCell id="h55tvgQfYBZGvIcUPzXj-411" value="&lt;span style=&quot;font-size: 16px;&quot;&gt;&lt;b&gt;Has&lt;/b&gt;&lt;/span&gt;" style="shape=rhombus;perimeter=rhombusPerimeter;whiteSpace=wrap;html=1;align=center;labelBackgroundColor=none;fillColor=#f8cecc;strokeColor=#b85450;rounded=1;" vertex="1" parent="WIyWlLk6GJQsqaUBKTNV-1">
          <mxGeometry x="1320" y="660" width="120" height="60" as="geometry" />
        </mxCell>
        <mxCell id="h55tvgQfYBZGvIcUPzXj-418" value="" style="shape=link;html=1;rounded=1;exitX=0.5;exitY=1;exitDx=0;exitDy=0;labelBackgroundColor=none;fontColor=default;entryX=0.204;entryY=0.002;entryDx=0;entryDy=0;entryPerimeter=0;" edge="1" parent="WIyWlLk6GJQsqaUBKTNV-1" source="h55tvgQfYBZGvIcUPzXj-411" target="h55tvgQfYBZGvIcUPzXj-379">
          <mxGeometry relative="1" as="geometry">
            <mxPoint x="1340.0000000000005" y="580" as="sourcePoint" />
            <mxPoint x="1490" y="840" as="targetPoint" />
            <Array as="points">
              <mxPoint x="1380" y="790" />
              <mxPoint x="1490" y="790" />
            </Array>
          </mxGeometry>
        </mxCell>
        <mxCell id="h55tvgQfYBZGvIcUPzXj-419" value="M" style="resizable=0;html=1;whiteSpace=wrap;align=left;verticalAlign=bottom;labelBackgroundColor=none;rounded=1;" connectable="0" vertex="1" parent="h55tvgQfYBZGvIcUPzXj-418">
          <mxGeometry x="-1" relative="1" as="geometry" />
        </mxCell>
        <mxCell id="h55tvgQfYBZGvIcUPzXj-420" value="N" style="resizable=0;html=1;whiteSpace=wrap;align=right;verticalAlign=bottom;labelBackgroundColor=none;rounded=1;" connectable="0" vertex="1" parent="h55tvgQfYBZGvIcUPzXj-418">
          <mxGeometry x="1" relative="1" as="geometry" />
        </mxCell>
        <mxCell id="h55tvgQfYBZGvIcUPzXj-421" value="&lt;span style=&quot;font-size: 16px;&quot;&gt;&lt;b&gt;Contain&lt;/b&gt;&lt;/span&gt;" style="shape=rhombus;perimeter=rhombusPerimeter;whiteSpace=wrap;html=1;align=center;labelBackgroundColor=none;fillColor=#f8cecc;strokeColor=#b85450;rounded=1;" vertex="1" parent="WIyWlLk6GJQsqaUBKTNV-1">
          <mxGeometry x="590" y="660" width="120" height="60" as="geometry" />
        </mxCell>
        <mxCell id="h55tvgQfYBZGvIcUPzXj-422" value="" style="shape=link;html=1;rounded=1;entryX=0.5;entryY=0;entryDx=0;entryDy=0;labelBackgroundColor=none;fontColor=default;exitX=0;exitY=0.75;exitDx=0;exitDy=0;" edge="1" parent="WIyWlLk6GJQsqaUBKTNV-1" source="h55tvgQfYBZGvIcUPzXj-280" target="h55tvgQfYBZGvIcUPzXj-421">
          <mxGeometry relative="1" as="geometry">
            <mxPoint x="1440" y="340" as="sourcePoint" />
            <mxPoint x="1350.0000000000005" y="645" as="targetPoint" />
            <Array as="points">
              <mxPoint x="1290" y="193" />
              <mxPoint x="1290" y="310" />
              <mxPoint x="1290" y="540" />
              <mxPoint x="650" y="540" />
            </Array>
          </mxGeometry>
        </mxCell>
        <mxCell id="h55tvgQfYBZGvIcUPzXj-423" value="M" style="resizable=0;html=1;whiteSpace=wrap;align=left;verticalAlign=bottom;labelBackgroundColor=none;rounded=1;" connectable="0" vertex="1" parent="h55tvgQfYBZGvIcUPzXj-422">
          <mxGeometry x="-1" relative="1" as="geometry" />
        </mxCell>
        <mxCell id="h55tvgQfYBZGvIcUPzXj-424" value="N" style="resizable=0;html=1;whiteSpace=wrap;align=right;verticalAlign=bottom;labelBackgroundColor=none;rounded=1;" connectable="0" vertex="1" parent="h55tvgQfYBZGvIcUPzXj-422">
          <mxGeometry x="1" relative="1" as="geometry" />
        </mxCell>
        <mxCell id="h55tvgQfYBZGvIcUPzXj-425" value="" style="shape=link;html=1;rounded=1;exitX=0.5;exitY=1;exitDx=0;exitDy=0;entryX=0.998;entryY=0.533;entryDx=0;entryDy=0;labelBackgroundColor=none;fontColor=default;entryPerimeter=0;" edge="1" parent="WIyWlLk6GJQsqaUBKTNV-1" source="h55tvgQfYBZGvIcUPzXj-421" target="h55tvgQfYBZGvIcUPzXj-163">
          <mxGeometry relative="1" as="geometry">
            <mxPoint x="910" y="840" as="sourcePoint" />
            <mxPoint x="980.0000000000005" y="1015" as="targetPoint" />
            <Array as="points">
              <mxPoint x="650" y="1200" />
            </Array>
          </mxGeometry>
        </mxCell>
        <mxCell id="h55tvgQfYBZGvIcUPzXj-426" value="M" style="resizable=0;html=1;whiteSpace=wrap;align=left;verticalAlign=bottom;labelBackgroundColor=none;rounded=1;" connectable="0" vertex="1" parent="h55tvgQfYBZGvIcUPzXj-425">
          <mxGeometry x="-1" relative="1" as="geometry" />
        </mxCell>
        <mxCell id="h55tvgQfYBZGvIcUPzXj-427" value="N" style="resizable=0;html=1;whiteSpace=wrap;align=right;verticalAlign=bottom;labelBackgroundColor=none;rounded=1;" connectable="0" vertex="1" parent="h55tvgQfYBZGvIcUPzXj-425">
          <mxGeometry x="1" relative="1" as="geometry" />
        </mxCell>
        <mxCell id="h55tvgQfYBZGvIcUPzXj-429" value="&lt;span style=&quot;font-size: 16px;&quot;&gt;&lt;b&gt;Has&lt;/b&gt;&lt;/span&gt;" style="shape=rhombus;perimeter=rhombusPerimeter;whiteSpace=wrap;html=1;align=center;labelBackgroundColor=none;fillColor=#f8cecc;strokeColor=#b85450;rounded=1;" vertex="1" parent="WIyWlLk6GJQsqaUBKTNV-1">
          <mxGeometry x="1475.07" y="1155" width="120" height="60" as="geometry" />
        </mxCell>
        <mxCell id="h55tvgQfYBZGvIcUPzXj-430" value="" style="shape=link;html=1;rounded=1;exitX=0.5;exitY=1;exitDx=0;exitDy=0;entryX=0.5;entryY=0;entryDx=0;entryDy=0;labelBackgroundColor=none;fontColor=default;" edge="1" parent="WIyWlLk6GJQsqaUBKTNV-1" source="h55tvgQfYBZGvIcUPzXj-379" target="h55tvgQfYBZGvIcUPzXj-429">
          <mxGeometry relative="1" as="geometry">
            <mxPoint x="1480.07" y="935" as="sourcePoint" />
            <mxPoint x="1470.07" y="975" as="targetPoint" />
            <Array as="points" />
          </mxGeometry>
        </mxCell>
        <mxCell id="h55tvgQfYBZGvIcUPzXj-431" value="M" style="resizable=0;html=1;whiteSpace=wrap;align=left;verticalAlign=bottom;labelBackgroundColor=none;rounded=1;" connectable="0" vertex="1" parent="h55tvgQfYBZGvIcUPzXj-430">
          <mxGeometry x="-1" relative="1" as="geometry" />
        </mxCell>
        <mxCell id="h55tvgQfYBZGvIcUPzXj-432" value="N" style="resizable=0;html=1;whiteSpace=wrap;align=right;verticalAlign=bottom;labelBackgroundColor=none;rounded=1;" connectable="0" vertex="1" parent="h55tvgQfYBZGvIcUPzXj-430">
          <mxGeometry x="1" relative="1" as="geometry" />
        </mxCell>
        <mxCell id="h55tvgQfYBZGvIcUPzXj-436" value="" style="shape=link;html=1;rounded=1;entryX=1;entryY=0.5;entryDx=0;entryDy=0;labelBackgroundColor=none;fontColor=default;exitX=0.029;exitY=0.495;exitDx=0;exitDy=0;exitPerimeter=0;" edge="1" parent="WIyWlLk6GJQsqaUBKTNV-1" source="h55tvgQfYBZGvIcUPzXj-429" target="h55tvgQfYBZGvIcUPzXj-151">
          <mxGeometry relative="1" as="geometry">
            <mxPoint x="1346" y="1050" as="sourcePoint" />
            <mxPoint x="1330" y="1109" as="targetPoint" />
            <Array as="points" />
          </mxGeometry>
        </mxCell>
        <mxCell id="h55tvgQfYBZGvIcUPzXj-437" value="M" style="resizable=0;html=1;whiteSpace=wrap;align=left;verticalAlign=bottom;labelBackgroundColor=none;rounded=1;" connectable="0" vertex="1" parent="h55tvgQfYBZGvIcUPzXj-436">
          <mxGeometry x="-1" relative="1" as="geometry">
            <mxPoint x="40" y="-25" as="offset" />
          </mxGeometry>
        </mxCell>
        <mxCell id="h55tvgQfYBZGvIcUPzXj-438" value="N" style="resizable=0;html=1;whiteSpace=wrap;align=right;verticalAlign=bottom;labelBackgroundColor=none;rounded=1;" connectable="0" vertex="1" parent="h55tvgQfYBZGvIcUPzXj-436">
          <mxGeometry x="1" relative="1" as="geometry" />
        </mxCell>
        <mxCell id="h55tvgQfYBZGvIcUPzXj-442" value="&lt;span style=&quot;font-size: 16px;&quot;&gt;&lt;b&gt;Take&lt;/b&gt;&lt;/span&gt;" style="shape=rhombus;perimeter=rhombusPerimeter;whiteSpace=wrap;html=1;align=center;labelBackgroundColor=none;fillColor=#f8cecc;strokeColor=#b85450;rounded=1;" vertex="1" parent="WIyWlLk6GJQsqaUBKTNV-1">
          <mxGeometry x="35" y="277.93" width="120" height="60" as="geometry" />
        </mxCell>
        <mxCell id="h55tvgQfYBZGvIcUPzXj-443" value="" style="shape=link;html=1;rounded=1;exitX=0;exitY=0.75;exitDx=0;exitDy=0;entryX=0.5;entryY=1;entryDx=0;entryDy=0;labelBackgroundColor=none;fontColor=default;" edge="1" parent="WIyWlLk6GJQsqaUBKTNV-1" source="h55tvgQfYBZGvIcUPzXj-379" target="h55tvgQfYBZGvIcUPzXj-442">
          <mxGeometry relative="1" as="geometry">
            <mxPoint x="1189" y="890" as="sourcePoint" />
            <mxPoint x="1050" y="915" as="targetPoint" />
            <Array as="points">
              <mxPoint x="90" y="910" />
            </Array>
          </mxGeometry>
        </mxCell>
        <mxCell id="h55tvgQfYBZGvIcUPzXj-444" value="M" style="resizable=0;html=1;whiteSpace=wrap;align=left;verticalAlign=bottom;labelBackgroundColor=none;rounded=1;" connectable="0" vertex="1" parent="h55tvgQfYBZGvIcUPzXj-443">
          <mxGeometry x="-1" relative="1" as="geometry" />
        </mxCell>
        <mxCell id="h55tvgQfYBZGvIcUPzXj-445" value="N" style="resizable=0;html=1;whiteSpace=wrap;align=right;verticalAlign=bottom;labelBackgroundColor=none;rounded=1;" connectable="0" vertex="1" parent="h55tvgQfYBZGvIcUPzXj-443">
          <mxGeometry x="1" relative="1" as="geometry" />
        </mxCell>
        <mxCell id="h55tvgQfYBZGvIcUPzXj-446" value="" style="shape=link;html=1;rounded=1;exitX=0;exitY=0.5;exitDx=0;exitDy=0;labelBackgroundColor=none;fontColor=default;" edge="1" parent="WIyWlLk6GJQsqaUBKTNV-1" source="h55tvgQfYBZGvIcUPzXj-151" target="h55tvgQfYBZGvIcUPzXj-442">
          <mxGeometry relative="1" as="geometry">
            <mxPoint x="1079" y="970" as="sourcePoint" />
            <mxPoint x="760" y="900" as="targetPoint" />
            <Array as="points">
              <mxPoint x="770" y="1185" />
              <mxPoint x="770" y="780" />
              <mxPoint x="170" y="780" />
              <mxPoint x="170" y="310" />
            </Array>
          </mxGeometry>
        </mxCell>
        <mxCell id="h55tvgQfYBZGvIcUPzXj-447" value="M" style="resizable=0;html=1;whiteSpace=wrap;align=left;verticalAlign=bottom;labelBackgroundColor=none;rounded=1;" connectable="0" vertex="1" parent="h55tvgQfYBZGvIcUPzXj-446">
          <mxGeometry x="-1" relative="1" as="geometry" />
        </mxCell>
        <mxCell id="h55tvgQfYBZGvIcUPzXj-448" value="N" style="resizable=0;html=1;whiteSpace=wrap;align=right;verticalAlign=bottom;labelBackgroundColor=none;rounded=1;" connectable="0" vertex="1" parent="h55tvgQfYBZGvIcUPzXj-446">
          <mxGeometry x="1" relative="1" as="geometry" />
        </mxCell>
        <mxCell id="h55tvgQfYBZGvIcUPzXj-455" value="&lt;span style=&quot;font-size: 16px;&quot;&gt;&lt;b&gt;Has&lt;/b&gt;&lt;/span&gt;" style="shape=rhombus;perimeter=rhombusPerimeter;whiteSpace=wrap;html=1;align=center;labelBackgroundColor=none;fillColor=#f8cecc;strokeColor=#b85450;rounded=1;" vertex="1" parent="WIyWlLk6GJQsqaUBKTNV-1">
          <mxGeometry x="1150" y="740" width="120" height="60" as="geometry" />
        </mxCell>
        <mxCell id="h55tvgQfYBZGvIcUPzXj-456" value="" style="shape=link;html=1;rounded=1;labelBackgroundColor=none;fontColor=default;entryX=0.5;entryY=0;entryDx=0;entryDy=0;exitX=0;exitY=0.25;exitDx=0;exitDy=0;" edge="1" parent="WIyWlLk6GJQsqaUBKTNV-1" source="h55tvgQfYBZGvIcUPzXj-280" target="h55tvgQfYBZGvIcUPzXj-455">
          <mxGeometry relative="1" as="geometry">
            <mxPoint x="1435" y="340" as="sourcePoint" />
            <mxPoint x="1130" y="760" as="targetPoint" />
            <Array as="points">
              <mxPoint x="1320" y="160" />
              <mxPoint x="1210" y="160" />
            </Array>
          </mxGeometry>
        </mxCell>
        <mxCell id="h55tvgQfYBZGvIcUPzXj-457" value="M" style="resizable=0;html=1;whiteSpace=wrap;align=left;verticalAlign=bottom;labelBackgroundColor=none;rounded=1;" connectable="0" vertex="1" parent="h55tvgQfYBZGvIcUPzXj-456">
          <mxGeometry x="-1" relative="1" as="geometry" />
        </mxCell>
        <mxCell id="h55tvgQfYBZGvIcUPzXj-458" value="N" style="resizable=0;html=1;whiteSpace=wrap;align=right;verticalAlign=bottom;labelBackgroundColor=none;rounded=1;" connectable="0" vertex="1" parent="h55tvgQfYBZGvIcUPzXj-456">
          <mxGeometry x="1" relative="1" as="geometry" />
        </mxCell>
        <mxCell id="h55tvgQfYBZGvIcUPzXj-459" value="" style="shape=link;html=1;rounded=1;exitX=0.5;exitY=1;exitDx=0;exitDy=0;labelBackgroundColor=none;fontColor=default;entryX=0.46;entryY=0;entryDx=0;entryDy=0;entryPerimeter=0;" edge="1" parent="WIyWlLk6GJQsqaUBKTNV-1" source="h55tvgQfYBZGvIcUPzXj-455" target="h55tvgQfYBZGvIcUPzXj-151">
          <mxGeometry relative="1" as="geometry">
            <mxPoint x="1140" y="910" as="sourcePoint" />
            <mxPoint x="1210" y="1140" as="targetPoint" />
            <Array as="points" />
          </mxGeometry>
        </mxCell>
        <mxCell id="h55tvgQfYBZGvIcUPzXj-460" value="M" style="resizable=0;html=1;whiteSpace=wrap;align=left;verticalAlign=bottom;labelBackgroundColor=none;rounded=1;" connectable="0" vertex="1" parent="h55tvgQfYBZGvIcUPzXj-459">
          <mxGeometry x="-1" relative="1" as="geometry" />
        </mxCell>
        <mxCell id="h55tvgQfYBZGvIcUPzXj-461" value="N" style="resizable=0;html=1;whiteSpace=wrap;align=right;verticalAlign=bottom;labelBackgroundColor=none;rounded=1;" connectable="0" vertex="1" parent="h55tvgQfYBZGvIcUPzXj-459">
          <mxGeometry x="1" relative="1" as="geometry">
            <mxPoint x="-15" y="105" as="offset" />
          </mxGeometry>
        </mxCell>
        <mxCell id="h55tvgQfYBZGvIcUPzXj-468" value="&lt;span style=&quot;font-size: 16px;&quot;&gt;Std_Answer&lt;/span&gt;" style="ellipse;whiteSpace=wrap;html=1;align=center;rounded=1;fontStyle=1;labelBackgroundColor=none;fillColor=#E6E6E6;strokeColor=#666666;fontColor=#333333;" vertex="1" parent="WIyWlLk6GJQsqaUBKTNV-1">
          <mxGeometry x="45" y="190" width="110" height="40" as="geometry" />
        </mxCell>
        <mxCell id="h55tvgQfYBZGvIcUPzXj-469" value="&lt;span style=&quot;font-size: 16px;&quot;&gt;Correct_Answer&lt;/span&gt;" style="ellipse;whiteSpace=wrap;html=1;align=center;rounded=1;fontStyle=1;labelBackgroundColor=none;fillColor=#E6E6E6;strokeColor=#666666;fontColor=#333333;" vertex="1" parent="WIyWlLk6GJQsqaUBKTNV-1">
          <mxGeometry x="-80" y="190" width="110" height="40" as="geometry" />
        </mxCell>
        <mxCell id="h55tvgQfYBZGvIcUPzXj-473" value="&lt;span style=&quot;font-size: 16px;&quot;&gt;Grade&lt;/span&gt;" style="ellipse;whiteSpace=wrap;html=1;align=center;rounded=1;fontStyle=1;labelBackgroundColor=none;fillColor=#E6E6E6;strokeColor=#666666;fontColor=#333333;" vertex="1" parent="WIyWlLk6GJQsqaUBKTNV-1">
          <mxGeometry x="165" y="190" width="110" height="40" as="geometry" />
        </mxCell>
        <mxCell id="h55tvgQfYBZGvIcUPzXj-475" value="&lt;span style=&quot;font-size: 18px;&quot;&gt;&lt;b&gt;Branch&lt;/b&gt;&lt;/span&gt;" style="rounded=1;arcSize=10;whiteSpace=wrap;html=1;align=center;labelBackgroundColor=none;fillColor=#B7272A;strokeColor=#b85450;fontColor=#FFFFFF;" vertex="1" parent="WIyWlLk6GJQsqaUBKTNV-1">
          <mxGeometry x="-685" y="1150" width="150" height="70" as="geometry" />
        </mxCell>
        <mxCell id="h55tvgQfYBZGvIcUPzXj-476" value="&lt;span style=&quot;font-size: 18px;&quot;&gt;&lt;b&gt;Intake&lt;/b&gt;&lt;/span&gt;" style="rounded=1;arcSize=10;whiteSpace=wrap;html=1;align=center;labelBackgroundColor=none;fillColor=#B7272A;strokeColor=#b85450;fontColor=#FFFFFF;" vertex="1" parent="WIyWlLk6GJQsqaUBKTNV-1">
          <mxGeometry x="-262.5" y="1160" width="150" height="70" as="geometry" />
        </mxCell>
        <mxCell id="h55tvgQfYBZGvIcUPzXj-478" value="&lt;span style=&quot;font-size: 16px;&quot;&gt;&lt;b&gt;Name&lt;/b&gt;&lt;/span&gt;" style="ellipse;whiteSpace=wrap;html=1;align=center;rounded=1;labelBackgroundColor=none;fillColor=#E6E6E6;strokeColor=#d6b656;" vertex="1" parent="WIyWlLk6GJQsqaUBKTNV-1">
          <mxGeometry x="-657.5" y="1317.52" width="100" height="40" as="geometry" />
        </mxCell>
        <mxCell id="h55tvgQfYBZGvIcUPzXj-479" value="&lt;span style=&quot;font-size: 16px;&quot;&gt;&lt;b&gt;Location&lt;/b&gt;&lt;/span&gt;" style="ellipse;whiteSpace=wrap;html=1;align=center;rounded=1;labelBackgroundColor=none;fillColor=#E6E6E6;strokeColor=#d6b656;" vertex="1" parent="WIyWlLk6GJQsqaUBKTNV-1">
          <mxGeometry x="-730" y="1267.52" width="100" height="40" as="geometry" />
        </mxCell>
        <mxCell id="h55tvgQfYBZGvIcUPzXj-480" value="&lt;font style=&quot;font-size: 18px;&quot;&gt;&lt;b&gt;ID&lt;/b&gt;&lt;/font&gt;" style="ellipse;whiteSpace=wrap;html=1;align=center;fontStyle=4;labelBackgroundColor=none;fillColor=#E6E6E6;strokeColor=#d6b656;rounded=1;" vertex="1" parent="WIyWlLk6GJQsqaUBKTNV-1">
          <mxGeometry x="-590" y="1267.52" width="100" height="40" as="geometry" />
        </mxCell>
        <mxCell id="h55tvgQfYBZGvIcUPzXj-481" value="&lt;font style=&quot;font-size: 18px;&quot;&gt;&lt;b&gt;ID&lt;/b&gt;&lt;/font&gt;" style="ellipse;whiteSpace=wrap;html=1;align=center;fontStyle=4;labelBackgroundColor=none;fillColor=#E6E6E6;strokeColor=#d6b656;rounded=1;" vertex="1" parent="WIyWlLk6GJQsqaUBKTNV-1">
          <mxGeometry x="-285" y="1310" width="100" height="40" as="geometry" />
        </mxCell>
        <mxCell id="h55tvgQfYBZGvIcUPzXj-482" value="&lt;span style=&quot;font-size: 16px;&quot;&gt;&lt;b&gt;Start_Date&lt;/b&gt;&lt;/span&gt;" style="ellipse;whiteSpace=wrap;html=1;align=center;rounded=1;labelBackgroundColor=none;fillColor=#E6E6E6;strokeColor=#d6b656;" vertex="1" parent="WIyWlLk6GJQsqaUBKTNV-1">
          <mxGeometry x="-175" y="1315.02" width="100" height="40" as="geometry" />
        </mxCell>
        <mxCell id="h55tvgQfYBZGvIcUPzXj-483" value="&lt;span style=&quot;font-size: 16px;&quot;&gt;&lt;b&gt;End_Date&lt;/b&gt;&lt;/span&gt;" style="ellipse;whiteSpace=wrap;html=1;align=center;rounded=1;labelBackgroundColor=none;fillColor=#E6E6E6;strokeColor=#d6b656;" vertex="1" parent="WIyWlLk6GJQsqaUBKTNV-1">
          <mxGeometry x="-125" y="1275.02" width="95" height="30" as="geometry" />
        </mxCell>
        <mxCell id="h55tvgQfYBZGvIcUPzXj-484" value="&lt;span style=&quot;font-size: 16px;&quot;&gt;&lt;b&gt;Type&lt;/b&gt;&lt;/span&gt;" style="ellipse;whiteSpace=wrap;html=1;align=center;rounded=1;labelBackgroundColor=none;fillColor=#E6E6E6;strokeColor=#d6b656;" vertex="1" parent="WIyWlLk6GJQsqaUBKTNV-1">
          <mxGeometry x="-345" y="1260" width="100" height="40" as="geometry" />
        </mxCell>
        <mxCell id="h55tvgQfYBZGvIcUPzXj-485" value="" style="endArrow=none;html=1;rounded=1;entryX=1;entryY=0;entryDx=0;entryDy=0;exitX=0.5;exitY=1;exitDx=0;exitDy=0;labelBackgroundColor=none;fontColor=default;" edge="1" parent="WIyWlLk6GJQsqaUBKTNV-1" target="h55tvgQfYBZGvIcUPzXj-484">
          <mxGeometry relative="1" as="geometry">
            <mxPoint x="-177.5" y="1230" as="sourcePoint" />
            <mxPoint x="-292.5" y="1323" as="targetPoint" />
          </mxGeometry>
        </mxCell>
        <mxCell id="h55tvgQfYBZGvIcUPzXj-486" value="" style="endArrow=none;html=1;rounded=1;entryX=0.5;entryY=0;entryDx=0;entryDy=0;exitX=0.5;exitY=1;exitDx=0;exitDy=0;labelBackgroundColor=none;fontColor=default;" edge="1" parent="WIyWlLk6GJQsqaUBKTNV-1" target="h55tvgQfYBZGvIcUPzXj-481">
          <mxGeometry relative="1" as="geometry">
            <mxPoint x="-177.5" y="1230" as="sourcePoint" />
            <mxPoint x="-222.5" y="1333" as="targetPoint" />
          </mxGeometry>
        </mxCell>
        <mxCell id="h55tvgQfYBZGvIcUPzXj-487" value="" style="endArrow=none;html=1;rounded=1;exitX=0.5;exitY=1;exitDx=0;exitDy=0;labelBackgroundColor=none;fontColor=default;" edge="1" parent="WIyWlLk6GJQsqaUBKTNV-1" target="h55tvgQfYBZGvIcUPzXj-482">
          <mxGeometry relative="1" as="geometry">
            <mxPoint x="-177.5" y="1230" as="sourcePoint" />
            <mxPoint x="-142.5" y="1360" as="targetPoint" />
          </mxGeometry>
        </mxCell>
        <mxCell id="h55tvgQfYBZGvIcUPzXj-488" value="" style="endArrow=none;html=1;rounded=1;entryX=0.309;entryY=0.034;entryDx=0;entryDy=0;exitX=0.5;exitY=1;exitDx=0;exitDy=0;labelBackgroundColor=none;fontColor=default;entryPerimeter=0;" edge="1" parent="WIyWlLk6GJQsqaUBKTNV-1" target="h55tvgQfYBZGvIcUPzXj-483">
          <mxGeometry relative="1" as="geometry">
            <mxPoint x="-177.5" y="1230" as="sourcePoint" />
            <mxPoint x="-92.5" y="1303" as="targetPoint" />
          </mxGeometry>
        </mxCell>
        <mxCell id="h55tvgQfYBZGvIcUPzXj-489" value="" style="endArrow=none;html=1;rounded=1;entryX=0.5;entryY=1;entryDx=0;entryDy=0;exitX=0.5;exitY=0;exitDx=0;exitDy=0;labelBackgroundColor=none;fontColor=default;exitPerimeter=0;" edge="1" parent="WIyWlLk6GJQsqaUBKTNV-1" source="h55tvgQfYBZGvIcUPzXj-480" target="h55tvgQfYBZGvIcUPzXj-475">
          <mxGeometry relative="1" as="geometry">
            <mxPoint x="-519" y="1100" as="sourcePoint" />
            <mxPoint x="-590" y="1173" as="targetPoint" />
          </mxGeometry>
        </mxCell>
        <mxCell id="h55tvgQfYBZGvIcUPzXj-490" value="" style="endArrow=none;html=1;rounded=1;entryX=0.5;entryY=1;entryDx=0;entryDy=0;exitX=0.5;exitY=0;exitDx=0;exitDy=0;labelBackgroundColor=none;fontColor=default;" edge="1" parent="WIyWlLk6GJQsqaUBKTNV-1" source="h55tvgQfYBZGvIcUPzXj-478" target="h55tvgQfYBZGvIcUPzXj-475">
          <mxGeometry relative="1" as="geometry">
            <mxPoint x="-599" y="1120" as="sourcePoint" />
            <mxPoint x="-670" y="1193" as="targetPoint" />
          </mxGeometry>
        </mxCell>
        <mxCell id="h55tvgQfYBZGvIcUPzXj-491" value="" style="endArrow=none;html=1;rounded=1;exitX=0.5;exitY=1;exitDx=0;exitDy=0;labelBackgroundColor=none;fontColor=default;entryX=0.615;entryY=-0.033;entryDx=0;entryDy=0;entryPerimeter=0;" edge="1" parent="WIyWlLk6GJQsqaUBKTNV-1" source="h55tvgQfYBZGvIcUPzXj-475" target="h55tvgQfYBZGvIcUPzXj-479">
          <mxGeometry relative="1" as="geometry">
            <mxPoint x="-600" y="1140" as="sourcePoint" />
            <mxPoint x="-719.5" y="1295" as="targetPoint" />
          </mxGeometry>
        </mxCell>
        <mxCell id="h55tvgQfYBZGvIcUPzXj-495" value="&lt;span style=&quot;font-size: 16px;&quot;&gt;&lt;b&gt;Name&lt;/b&gt;&lt;/span&gt;" style="ellipse;whiteSpace=wrap;html=1;align=center;rounded=1;labelBackgroundColor=none;fillColor=#E6E6E6;strokeColor=#666666;fontColor=#333333;" vertex="1" parent="WIyWlLk6GJQsqaUBKTNV-1">
          <mxGeometry x="-980" y="-52.5" width="100" height="40" as="geometry" />
        </mxCell>
        <mxCell id="h55tvgQfYBZGvIcUPzXj-512" value="&lt;span style=&quot;font-size: 18px;&quot;&gt;&lt;b&gt;Company&lt;/b&gt;&lt;/span&gt;" style="rounded=1;arcSize=10;whiteSpace=wrap;html=1;align=center;labelBackgroundColor=none;fillColor=#B7272A;strokeColor=#b85450;fontColor=#FFFFFF;" vertex="1" parent="WIyWlLk6GJQsqaUBKTNV-1">
          <mxGeometry x="-870" y="-27.500000000000007" width="150" height="70" as="geometry" />
        </mxCell>
        <mxCell id="h55tvgQfYBZGvIcUPzXj-513" value="&lt;b style=&quot;font-size: 16px;&quot;&gt;Scope&lt;/b&gt;" style="ellipse;whiteSpace=wrap;html=1;align=center;rounded=1;labelBackgroundColor=none;fillColor=#E6E6E6;strokeColor=#666666;fontColor=#333333;" vertex="1" parent="WIyWlLk6GJQsqaUBKTNV-1">
          <mxGeometry x="-980" y="27.55" width="100" height="40" as="geometry" />
        </mxCell>
        <mxCell id="h55tvgQfYBZGvIcUPzXj-514" value="&lt;font style=&quot;font-size: 18px;&quot;&gt;&lt;b&gt;Company_ID&lt;/b&gt;&lt;/font&gt;" style="ellipse;whiteSpace=wrap;html=1;align=center;fontStyle=4;labelBackgroundColor=none;fillColor=#E6E6E6;strokeColor=#666666;rounded=1;fontColor=#333333;" vertex="1" parent="WIyWlLk6GJQsqaUBKTNV-1">
          <mxGeometry x="-1074" y="-12.500000000000007" width="140" height="40" as="geometry" />
        </mxCell>
        <mxCell id="h55tvgQfYBZGvIcUPzXj-515" value="&lt;span style=&quot;font-size: 18px;&quot;&gt;&lt;b&gt;Freelance&lt;/b&gt;&lt;/span&gt;&lt;div&gt;&lt;span style=&quot;font-size: 18px;&quot;&gt;&lt;b&gt;Platform&lt;/b&gt;&lt;/span&gt;&lt;/div&gt;" style="rounded=1;arcSize=10;whiteSpace=wrap;html=1;align=center;labelBackgroundColor=none;fillColor=#B7272A;strokeColor=#b85450;fontColor=#FFFFFF;" vertex="1" parent="WIyWlLk6GJQsqaUBKTNV-1">
          <mxGeometry x="-873" y="192.70999999999998" width="150" height="70" as="geometry" />
        </mxCell>
        <mxCell id="h55tvgQfYBZGvIcUPzXj-516" value="&lt;span style=&quot;font-size: 18px;&quot;&gt;&lt;b&gt;Certificate&amp;nbsp;&lt;/b&gt;&lt;/span&gt;" style="rounded=1;arcSize=10;whiteSpace=wrap;html=1;align=center;labelBackgroundColor=none;fillColor=#B7272A;strokeColor=#b85450;fontColor=#FFFFFF;" vertex="1" parent="WIyWlLk6GJQsqaUBKTNV-1">
          <mxGeometry x="-873" y="394.57" width="150" height="70" as="geometry" />
        </mxCell>
        <mxCell id="h55tvgQfYBZGvIcUPzXj-517" value="&lt;span style=&quot;font-size: 16px;&quot;&gt;&lt;b&gt;Free_Name&lt;/b&gt;&lt;/span&gt;" style="ellipse;whiteSpace=wrap;html=1;align=center;rounded=1;labelBackgroundColor=none;fillColor=#E6E6E6;strokeColor=#666666;fontColor=#333333;" vertex="1" parent="WIyWlLk6GJQsqaUBKTNV-1">
          <mxGeometry x="-1010" y="177.42" width="100" height="40" as="geometry" />
        </mxCell>
        <mxCell id="h55tvgQfYBZGvIcUPzXj-518" value="&lt;font style=&quot;font-size: 18px;&quot;&gt;&lt;b&gt;Free_ID&lt;/b&gt;&lt;/font&gt;" style="ellipse;whiteSpace=wrap;html=1;align=center;fontStyle=4;labelBackgroundColor=none;fillColor=#E6E6E6;strokeColor=#666666;rounded=1;fontColor=#333333;" vertex="1" parent="WIyWlLk6GJQsqaUBKTNV-1">
          <mxGeometry x="-1010" y="237.42" width="100" height="40" as="geometry" />
        </mxCell>
        <mxCell id="h55tvgQfYBZGvIcUPzXj-519" value="&lt;span style=&quot;font-size: 16px;&quot;&gt;&lt;b&gt;Crtf_Name&lt;/b&gt;&lt;/span&gt;" style="ellipse;whiteSpace=wrap;html=1;align=center;rounded=1;labelBackgroundColor=none;fillColor=#E6E6E6;strokeColor=#666666;fontColor=#333333;" vertex="1" parent="WIyWlLk6GJQsqaUBKTNV-1">
          <mxGeometry x="-1110" y="379.57" width="100" height="40" as="geometry" />
        </mxCell>
        <mxCell id="h55tvgQfYBZGvIcUPzXj-520" value="&lt;font style=&quot;font-size: 18px;&quot;&gt;&lt;b&gt;Crtf_ID&lt;/b&gt;&lt;/font&gt;" style="ellipse;whiteSpace=wrap;html=1;align=center;fontStyle=4;labelBackgroundColor=none;fillColor=#E6E6E6;strokeColor=#666666;rounded=1;fontColor=#333333;" vertex="1" parent="WIyWlLk6GJQsqaUBKTNV-1">
          <mxGeometry x="-1160" y="422.5" width="100" height="40" as="geometry" />
        </mxCell>
        <mxCell id="h55tvgQfYBZGvIcUPzXj-521" value="&lt;span style=&quot;font-size: 16px;&quot;&gt;&lt;b&gt;Provider&lt;/b&gt;&lt;/span&gt;" style="ellipse;whiteSpace=wrap;html=1;align=center;rounded=1;labelBackgroundColor=none;fillColor=#E6E6E6;strokeColor=#666666;fontColor=#333333;" vertex="1" parent="WIyWlLk6GJQsqaUBKTNV-1">
          <mxGeometry x="-1000" y="360" width="100" height="40" as="geometry" />
        </mxCell>
        <mxCell id="h55tvgQfYBZGvIcUPzXj-522" value="&lt;span style=&quot;font-size: 16px;&quot;&gt;&lt;b&gt;Field&lt;/b&gt;&lt;/span&gt;" style="ellipse;whiteSpace=wrap;html=1;align=center;rounded=1;labelBackgroundColor=none;fillColor=#E6E6E6;strokeColor=#666666;fontColor=#333333;" vertex="1" parent="WIyWlLk6GJQsqaUBKTNV-1">
          <mxGeometry x="-1080" y="464.57" width="100" height="40" as="geometry" />
        </mxCell>
        <mxCell id="h55tvgQfYBZGvIcUPzXj-523" style="edgeStyle=orthogonalEdgeStyle;rounded=1;orthogonalLoop=1;jettySize=auto;html=1;exitX=0.5;exitY=1;exitDx=0;exitDy=0;labelBackgroundColor=none;fontColor=default;" edge="1" parent="WIyWlLk6GJQsqaUBKTNV-1" source="h55tvgQfYBZGvIcUPzXj-518" target="h55tvgQfYBZGvIcUPzXj-518">
          <mxGeometry relative="1" as="geometry" />
        </mxCell>
        <mxCell id="h55tvgQfYBZGvIcUPzXj-524" value="" style="endArrow=none;html=1;rounded=1;exitX=0.86;exitY=0.842;exitDx=0;exitDy=0;labelBackgroundColor=none;fontColor=default;entryX=0;entryY=0.5;entryDx=0;entryDy=0;exitPerimeter=0;" edge="1" parent="WIyWlLk6GJQsqaUBKTNV-1" source="h55tvgQfYBZGvIcUPzXj-495" target="h55tvgQfYBZGvIcUPzXj-512">
          <mxGeometry relative="1" as="geometry">
            <mxPoint x="-967" y="-61.43000000000001" as="sourcePoint" />
            <mxPoint x="-940" y="51.56999999999999" as="targetPoint" />
          </mxGeometry>
        </mxCell>
        <mxCell id="h55tvgQfYBZGvIcUPzXj-525" value="" style="endArrow=none;html=1;rounded=1;exitX=0.98;exitY=0.359;exitDx=0;exitDy=0;labelBackgroundColor=none;fontColor=default;entryX=0;entryY=0.5;entryDx=0;entryDy=0;exitPerimeter=0;" edge="1" parent="WIyWlLk6GJQsqaUBKTNV-1" source="h55tvgQfYBZGvIcUPzXj-513" target="h55tvgQfYBZGvIcUPzXj-512">
          <mxGeometry relative="1" as="geometry">
            <mxPoint x="-884" y="9.569999999999993" as="sourcePoint" />
            <mxPoint x="-846" y="35.56999999999999" as="targetPoint" />
          </mxGeometry>
        </mxCell>
        <mxCell id="h55tvgQfYBZGvIcUPzXj-526" value="" style="endArrow=none;html=1;rounded=1;exitX=1;exitY=0.5;exitDx=0;exitDy=0;entryX=0;entryY=0.5;entryDx=0;entryDy=0;labelBackgroundColor=none;fontColor=default;" edge="1" parent="WIyWlLk6GJQsqaUBKTNV-1" source="h55tvgQfYBZGvIcUPzXj-514" target="h55tvgQfYBZGvIcUPzXj-512">
          <mxGeometry relative="1" as="geometry">
            <mxPoint x="-960" y="64.57" as="sourcePoint" />
            <mxPoint x="-922" y="90.57" as="targetPoint" />
          </mxGeometry>
        </mxCell>
        <mxCell id="h55tvgQfYBZGvIcUPzXj-527" value="" style="endArrow=none;html=1;rounded=1;exitX=1;exitY=0.5;exitDx=0;exitDy=0;labelBackgroundColor=none;fontColor=default;entryX=0;entryY=0.5;entryDx=0;entryDy=0;" edge="1" parent="WIyWlLk6GJQsqaUBKTNV-1" source="h55tvgQfYBZGvIcUPzXj-517" target="h55tvgQfYBZGvIcUPzXj-515">
          <mxGeometry relative="1" as="geometry">
            <mxPoint x="-900" y="202.70999999999998" as="sourcePoint" />
            <mxPoint x="-870" y="230.64" as="targetPoint" />
          </mxGeometry>
        </mxCell>
        <mxCell id="h55tvgQfYBZGvIcUPzXj-528" value="" style="endArrow=none;html=1;rounded=1;exitX=1;exitY=0.5;exitDx=0;exitDy=0;entryX=0;entryY=0.5;entryDx=0;entryDy=0;labelBackgroundColor=none;fontColor=default;" edge="1" parent="WIyWlLk6GJQsqaUBKTNV-1" source="h55tvgQfYBZGvIcUPzXj-518" target="h55tvgQfYBZGvIcUPzXj-515">
          <mxGeometry relative="1" as="geometry">
            <mxPoint x="-900" y="272.71" as="sourcePoint" />
            <mxPoint x="-862" y="298.71" as="targetPoint" />
          </mxGeometry>
        </mxCell>
        <mxCell id="bD0K_7aEFH-HOSiIAvq8-0" value="" style="endArrow=none;html=1;rounded=1;exitX=0.97;exitY=0.668;exitDx=0;exitDy=0;labelBackgroundColor=none;fontColor=default;exitPerimeter=0;entryX=0;entryY=0.5;entryDx=0;entryDy=0;" edge="1" parent="WIyWlLk6GJQsqaUBKTNV-1" source="h55tvgQfYBZGvIcUPzXj-519" target="h55tvgQfYBZGvIcUPzXj-516">
          <mxGeometry relative="1" as="geometry">
            <mxPoint x="-900" y="314.57" as="sourcePoint" />
            <mxPoint x="-870" y="430" as="targetPoint" />
          </mxGeometry>
        </mxCell>
        <mxCell id="bD0K_7aEFH-HOSiIAvq8-1" value="" style="endArrow=none;html=1;rounded=1;labelBackgroundColor=none;fontColor=default;entryX=0;entryY=0.5;entryDx=0;entryDy=0;" edge="1" parent="WIyWlLk6GJQsqaUBKTNV-1" target="h55tvgQfYBZGvIcUPzXj-516">
          <mxGeometry relative="1" as="geometry">
            <mxPoint x="-1060.6143886700565" y="441.4443283968394" as="sourcePoint" />
            <mxPoint x="-870" y="430" as="targetPoint" />
          </mxGeometry>
        </mxCell>
        <mxCell id="bD0K_7aEFH-HOSiIAvq8-2" value="" style="endArrow=none;html=1;rounded=1;entryX=0;entryY=0.5;entryDx=0;entryDy=0;labelBackgroundColor=none;fontColor=default;" edge="1" parent="WIyWlLk6GJQsqaUBKTNV-1" source="h55tvgQfYBZGvIcUPzXj-521" target="h55tvgQfYBZGvIcUPzXj-516">
          <mxGeometry relative="1" as="geometry">
            <mxPoint x="-870" y="514.5699999999999" as="sourcePoint" />
            <mxPoint x="-833" y="489.57" as="targetPoint" />
          </mxGeometry>
        </mxCell>
        <mxCell id="bD0K_7aEFH-HOSiIAvq8-3" value="" style="endArrow=none;html=1;rounded=1;labelBackgroundColor=none;fontColor=default;exitX=0.749;exitY=0.061;exitDx=0;exitDy=0;exitPerimeter=0;entryX=0;entryY=0.5;entryDx=0;entryDy=0;" edge="1" parent="WIyWlLk6GJQsqaUBKTNV-1" source="h55tvgQfYBZGvIcUPzXj-522" target="h55tvgQfYBZGvIcUPzXj-516">
          <mxGeometry relative="1" as="geometry">
            <mxPoint x="-860" y="524.5699999999999" as="sourcePoint" />
            <mxPoint x="-880" y="430" as="targetPoint" />
          </mxGeometry>
        </mxCell>
        <mxCell id="bD0K_7aEFH-HOSiIAvq8-4" value="&lt;span style=&quot;font-size: 16px;&quot;&gt;&lt;b&gt;Has&lt;/b&gt;&lt;/span&gt;" style="shape=rhombus;perimeter=rhombusPerimeter;whiteSpace=wrap;html=1;align=center;labelBackgroundColor=none;fillColor=#f8cecc;strokeColor=#b85450;rounded=1;" vertex="1" parent="WIyWlLk6GJQsqaUBKTNV-1">
          <mxGeometry x="297" y="660" width="120" height="60" as="geometry" />
        </mxCell>
        <mxCell id="bD0K_7aEFH-HOSiIAvq8-5" value="" style="shape=link;html=1;rounded=1;entryX=0.5;entryY=1;entryDx=0;entryDy=0;exitX=0.5;exitY=0;exitDx=0;exitDy=0;" edge="1" parent="WIyWlLk6GJQsqaUBKTNV-1" source="bD0K_7aEFH-HOSiIAvq8-4" target="h55tvgQfYBZGvIcUPzXj-74">
          <mxGeometry relative="1" as="geometry">
            <mxPoint x="330" y="815" as="sourcePoint" />
            <mxPoint x="490" y="815" as="targetPoint" />
            <Array as="points" />
          </mxGeometry>
        </mxCell>
        <mxCell id="bD0K_7aEFH-HOSiIAvq8-6" value="1" style="resizable=0;html=1;whiteSpace=wrap;align=right;verticalAlign=bottom;rounded=1;" connectable="0" vertex="1" parent="bD0K_7aEFH-HOSiIAvq8-5">
          <mxGeometry x="1" relative="1" as="geometry" />
        </mxCell>
        <mxCell id="bD0K_7aEFH-HOSiIAvq8-10" value="" style="shape=link;html=1;rounded=1;entryX=0.5;entryY=1;entryDx=0;entryDy=0;exitX=0.5;exitY=0;exitDx=0;exitDy=0;" edge="1" parent="WIyWlLk6GJQsqaUBKTNV-1" source="h55tvgQfYBZGvIcUPzXj-163" target="bD0K_7aEFH-HOSiIAvq8-4">
          <mxGeometry relative="1" as="geometry">
            <mxPoint x="240" y="904.09" as="sourcePoint" />
            <mxPoint x="400" y="904.09" as="targetPoint" />
            <Array as="points">
              <mxPoint x="462" y="1100" />
              <mxPoint x="357" y="1100" />
            </Array>
          </mxGeometry>
        </mxCell>
        <mxCell id="bD0K_7aEFH-HOSiIAvq8-11" value="M" style="resizable=0;html=1;whiteSpace=wrap;align=left;verticalAlign=bottom;rounded=1;" connectable="0" vertex="1" parent="bD0K_7aEFH-HOSiIAvq8-10">
          <mxGeometry x="-1" relative="1" as="geometry" />
        </mxCell>
        <mxCell id="bD0K_7aEFH-HOSiIAvq8-12" value="N" style="resizable=0;html=1;whiteSpace=wrap;align=right;verticalAlign=bottom;rounded=1;" connectable="0" vertex="1" parent="bD0K_7aEFH-HOSiIAvq8-10">
          <mxGeometry x="1" relative="1" as="geometry" />
        </mxCell>
        <mxCell id="bD0K_7aEFH-HOSiIAvq8-13" value="&lt;span style=&quot;font-size: 16px;&quot;&gt;&lt;b&gt;Enrolled&lt;/b&gt;&lt;/span&gt;" style="shape=rhombus;perimeter=rhombusPerimeter;whiteSpace=wrap;html=1;align=center;labelBackgroundColor=none;fillColor=#f8cecc;strokeColor=#b85450;rounded=1;" vertex="1" parent="WIyWlLk6GJQsqaUBKTNV-1">
          <mxGeometry x="-185" y="800" width="120" height="60" as="geometry" />
        </mxCell>
        <mxCell id="bD0K_7aEFH-HOSiIAvq8-14" value="" style="endArrow=none;html=1;rounded=1;entryX=0;entryY=0.5;entryDx=0;entryDy=0;exitX=1;exitY=0.5;exitDx=0;exitDy=0;" edge="1" parent="WIyWlLk6GJQsqaUBKTNV-1" source="bD0K_7aEFH-HOSiIAvq8-13" target="h55tvgQfYBZGvIcUPzXj-163">
          <mxGeometry relative="1" as="geometry">
            <mxPoint y="730" as="sourcePoint" />
            <mxPoint x="105" y="665" as="targetPoint" />
            <Array as="points">
              <mxPoint x="250" y="830" />
              <mxPoint x="250" y="1198" />
              <mxPoint x="350" y="1198" />
            </Array>
          </mxGeometry>
        </mxCell>
        <mxCell id="bD0K_7aEFH-HOSiIAvq8-15" value="1" style="resizable=0;html=1;whiteSpace=wrap;align=right;verticalAlign=bottom;rounded=1;" connectable="0" vertex="1" parent="bD0K_7aEFH-HOSiIAvq8-14">
          <mxGeometry x="1" relative="1" as="geometry" />
        </mxCell>
        <mxCell id="bD0K_7aEFH-HOSiIAvq8-16" value="" style="shape=link;html=1;rounded=1;exitX=0.648;exitY=0.987;exitDx=0;exitDy=0;entryX=0.456;entryY=0.02;entryDx=0;entryDy=0;entryPerimeter=0;exitPerimeter=0;" edge="1" parent="WIyWlLk6GJQsqaUBKTNV-1" source="h55tvgQfYBZGvIcUPzXj-218" target="bD0K_7aEFH-HOSiIAvq8-13">
          <mxGeometry relative="1" as="geometry">
            <mxPoint x="-380" y="498.89" as="sourcePoint" />
            <mxPoint x="-50" y="810" as="targetPoint" />
            <Array as="points">
              <mxPoint y="140" />
              <mxPoint x="-130" y="140" />
              <mxPoint x="-130" y="440" />
              <mxPoint x="-130" y="500" />
            </Array>
          </mxGeometry>
        </mxCell>
        <mxCell id="bD0K_7aEFH-HOSiIAvq8-17" value="M" style="resizable=0;html=1;whiteSpace=wrap;align=left;verticalAlign=bottom;rounded=1;" connectable="0" vertex="1" parent="bD0K_7aEFH-HOSiIAvq8-16">
          <mxGeometry x="-1" relative="1" as="geometry" />
        </mxCell>
        <mxCell id="bD0K_7aEFH-HOSiIAvq8-18" value="N" style="resizable=0;html=1;whiteSpace=wrap;align=right;verticalAlign=bottom;rounded=1;" connectable="0" vertex="1" parent="bD0K_7aEFH-HOSiIAvq8-16">
          <mxGeometry x="1" relative="1" as="geometry" />
        </mxCell>
        <mxCell id="bD0K_7aEFH-HOSiIAvq8-22" value="&lt;span style=&quot;font-size: 16px;&quot;&gt;&lt;b&gt;Has&lt;/b&gt;&lt;/span&gt;" style="shape=rhombus;perimeter=rhombusPerimeter;whiteSpace=wrap;html=1;align=center;labelBackgroundColor=none;fillColor=#f8cecc;strokeColor=#b85450;rounded=1;" vertex="1" parent="WIyWlLk6GJQsqaUBKTNV-1">
          <mxGeometry x="-30" y="1020" width="120" height="60" as="geometry" />
        </mxCell>
        <mxCell id="bD0K_7aEFH-HOSiIAvq8-30" value="" style="shape=link;html=1;rounded=1;entryX=0.5;entryY=1;entryDx=0;entryDy=0;exitX=0.991;exitY=0.429;exitDx=0;exitDy=0;exitPerimeter=0;" edge="1" parent="WIyWlLk6GJQsqaUBKTNV-1" source="h55tvgQfYBZGvIcUPzXj-476" target="bD0K_7aEFH-HOSiIAvq8-22">
          <mxGeometry relative="1" as="geometry">
            <mxPoint x="-290" y="1100" as="sourcePoint" />
            <mxPoint x="-130" y="1100" as="targetPoint" />
            <Array as="points">
              <mxPoint x="30" y="1190" />
            </Array>
          </mxGeometry>
        </mxCell>
        <mxCell id="bD0K_7aEFH-HOSiIAvq8-31" value="N" style="resizable=0;html=1;whiteSpace=wrap;align=right;verticalAlign=bottom;rounded=1;" connectable="0" vertex="1" parent="bD0K_7aEFH-HOSiIAvq8-30">
          <mxGeometry x="1" relative="1" as="geometry" />
        </mxCell>
        <mxCell id="bD0K_7aEFH-HOSiIAvq8-32" value="" style="endArrow=none;html=1;rounded=1;exitX=1;exitY=0.25;exitDx=0;exitDy=0;entryX=0;entryY=0.5;entryDx=0;entryDy=0;" edge="1" parent="WIyWlLk6GJQsqaUBKTNV-1" source="h55tvgQfYBZGvIcUPzXj-475" target="bD0K_7aEFH-HOSiIAvq8-22">
          <mxGeometry relative="1" as="geometry">
            <mxPoint x="-80" y="1030" as="sourcePoint" />
            <mxPoint x="80" y="1030" as="targetPoint" />
            <Array as="points">
              <mxPoint x="-430" y="1168" />
              <mxPoint x="-430" y="1050" />
            </Array>
          </mxGeometry>
        </mxCell>
        <mxCell id="bD0K_7aEFH-HOSiIAvq8-33" value="M" style="resizable=0;html=1;whiteSpace=wrap;align=left;verticalAlign=bottom;rounded=1;" connectable="0" vertex="1" parent="bD0K_7aEFH-HOSiIAvq8-32">
          <mxGeometry x="-1" relative="1" as="geometry" />
        </mxCell>
        <mxCell id="bD0K_7aEFH-HOSiIAvq8-34" value="N" style="resizable=0;html=1;whiteSpace=wrap;align=right;verticalAlign=bottom;rounded=1;" connectable="0" vertex="1" parent="bD0K_7aEFH-HOSiIAvq8-32">
          <mxGeometry x="1" relative="1" as="geometry" />
        </mxCell>
        <mxCell id="bD0K_7aEFH-HOSiIAvq8-35" value="" style="endArrow=none;html=1;rounded=1;entryX=0;entryY=0;entryDx=0;entryDy=0;exitX=1;exitY=0.5;exitDx=0;exitDy=0;" edge="1" parent="WIyWlLk6GJQsqaUBKTNV-1" source="bD0K_7aEFH-HOSiIAvq8-22" target="h55tvgQfYBZGvIcUPzXj-163">
          <mxGeometry relative="1" as="geometry">
            <mxPoint x="-80" y="1030" as="sourcePoint" />
            <mxPoint x="80" y="1030" as="targetPoint" />
            <Array as="points">
              <mxPoint x="160" y="1050" />
              <mxPoint x="160" y="1160" />
            </Array>
          </mxGeometry>
        </mxCell>
        <mxCell id="bD0K_7aEFH-HOSiIAvq8-36" value="M" style="resizable=0;html=1;whiteSpace=wrap;align=left;verticalAlign=bottom;rounded=1;" connectable="0" vertex="1" parent="bD0K_7aEFH-HOSiIAvq8-35">
          <mxGeometry x="-1" relative="1" as="geometry" />
        </mxCell>
        <mxCell id="bD0K_7aEFH-HOSiIAvq8-37" value="N" style="resizable=0;html=1;whiteSpace=wrap;align=right;verticalAlign=bottom;rounded=1;" connectable="0" vertex="1" parent="bD0K_7aEFH-HOSiIAvq8-35">
          <mxGeometry x="1" relative="1" as="geometry" />
        </mxCell>
        <mxCell id="bD0K_7aEFH-HOSiIAvq8-38" value="&lt;span style=&quot;font-size: 16px;&quot;&gt;&lt;b&gt;Enrolled&lt;/b&gt;&lt;/span&gt;" style="shape=rhombus;perimeter=rhombusPerimeter;whiteSpace=wrap;html=1;align=center;labelBackgroundColor=none;fillColor=#f8cecc;strokeColor=#b85450;rounded=1;" vertex="1" parent="WIyWlLk6GJQsqaUBKTNV-1">
          <mxGeometry x="-370" y="585" width="120" height="60" as="geometry" />
        </mxCell>
        <mxCell id="bD0K_7aEFH-HOSiIAvq8-41" value="" style="shape=link;html=1;rounded=1;exitX=0.372;exitY=0.98;exitDx=0;exitDy=0;entryX=0.5;entryY=0;entryDx=0;entryDy=0;exitPerimeter=0;" edge="1" parent="WIyWlLk6GJQsqaUBKTNV-1" source="h55tvgQfYBZGvIcUPzXj-218" target="bD0K_7aEFH-HOSiIAvq8-38">
          <mxGeometry relative="1" as="geometry">
            <mxPoint x="-80" y="590" as="sourcePoint" />
            <mxPoint x="80" y="590" as="targetPoint" />
            <Array as="points">
              <mxPoint x="-38" y="110" />
              <mxPoint x="-310" y="110" />
              <mxPoint x="-310" y="360" />
              <mxPoint x="-310" y="585" />
            </Array>
          </mxGeometry>
        </mxCell>
        <mxCell id="bD0K_7aEFH-HOSiIAvq8-42" value="N" style="resizable=0;html=1;whiteSpace=wrap;align=right;verticalAlign=bottom;rounded=1;" connectable="0" vertex="1" parent="bD0K_7aEFH-HOSiIAvq8-41">
          <mxGeometry x="1" relative="1" as="geometry" />
        </mxCell>
        <mxCell id="bD0K_7aEFH-HOSiIAvq8-43" value="" style="shape=link;html=1;rounded=1;entryX=0.5;entryY=0;entryDx=0;entryDy=0;exitX=0.5;exitY=1;exitDx=0;exitDy=0;" edge="1" parent="WIyWlLk6GJQsqaUBKTNV-1" source="bD0K_7aEFH-HOSiIAvq8-38" target="h55tvgQfYBZGvIcUPzXj-476">
          <mxGeometry relative="1" as="geometry">
            <mxPoint x="-400" y="775" as="sourcePoint" />
            <mxPoint x="-240" y="775" as="targetPoint" />
            <Array as="points">
              <mxPoint x="-190" y="645" />
            </Array>
          </mxGeometry>
        </mxCell>
        <mxCell id="bD0K_7aEFH-HOSiIAvq8-44" value="1" style="resizable=0;html=1;whiteSpace=wrap;align=right;verticalAlign=bottom;rounded=1;" connectable="0" vertex="1" parent="bD0K_7aEFH-HOSiIAvq8-43">
          <mxGeometry x="1" relative="1" as="geometry" />
        </mxCell>
        <mxCell id="bD0K_7aEFH-HOSiIAvq8-45" value="&lt;span style=&quot;font-size: 16px;&quot;&gt;&lt;b&gt;Joined&lt;/b&gt;&lt;/span&gt;" style="shape=rhombus;perimeter=rhombusPerimeter;whiteSpace=wrap;html=1;align=center;labelBackgroundColor=none;fillColor=#f8cecc;strokeColor=#b85450;rounded=1;" vertex="1" parent="WIyWlLk6GJQsqaUBKTNV-1">
          <mxGeometry x="-647.5" y="585" width="120" height="60" as="geometry" />
        </mxCell>
        <mxCell id="bD0K_7aEFH-HOSiIAvq8-46" value="" style="shape=link;html=1;rounded=1;entryX=0.5;entryY=1;entryDx=0;entryDy=0;exitX=0.599;exitY=-0.021;exitDx=0;exitDy=0;exitPerimeter=0;" edge="1" parent="WIyWlLk6GJQsqaUBKTNV-1" source="h55tvgQfYBZGvIcUPzXj-475" target="bD0K_7aEFH-HOSiIAvq8-45">
          <mxGeometry relative="1" as="geometry">
            <mxPoint x="-587" y="1040" as="sourcePoint" />
            <mxPoint x="-607.5" y="346.11" as="targetPoint" />
          </mxGeometry>
        </mxCell>
        <mxCell id="bD0K_7aEFH-HOSiIAvq8-47" value="1" style="resizable=0;html=1;whiteSpace=wrap;align=right;verticalAlign=bottom;rounded=1;" connectable="0" vertex="1" parent="bD0K_7aEFH-HOSiIAvq8-46">
          <mxGeometry x="1" relative="1" as="geometry" />
        </mxCell>
        <mxCell id="bD0K_7aEFH-HOSiIAvq8-48" value="" style="shape=link;html=1;rounded=1;exitX=0.142;exitY=0.98;exitDx=0;exitDy=0;entryX=0.5;entryY=0;entryDx=0;entryDy=0;exitPerimeter=0;" edge="1" parent="WIyWlLk6GJQsqaUBKTNV-1" source="h55tvgQfYBZGvIcUPzXj-218" target="bD0K_7aEFH-HOSiIAvq8-45">
          <mxGeometry relative="1" as="geometry">
            <mxPoint x="-80" y="590" as="sourcePoint" />
            <mxPoint x="80" y="590" as="targetPoint" />
            <Array as="points">
              <mxPoint x="-72" y="80" />
              <mxPoint x="-280" y="80" />
              <mxPoint x="-350" y="80" />
              <mxPoint x="-350" y="400" />
              <mxPoint x="-480" y="400" />
              <mxPoint x="-590" y="400" />
            </Array>
          </mxGeometry>
        </mxCell>
        <mxCell id="bD0K_7aEFH-HOSiIAvq8-49" value="N" style="resizable=0;html=1;whiteSpace=wrap;align=right;verticalAlign=bottom;rounded=1;" connectable="0" vertex="1" parent="bD0K_7aEFH-HOSiIAvq8-48">
          <mxGeometry x="1" relative="1" as="geometry" />
        </mxCell>
        <mxCell id="bD0K_7aEFH-HOSiIAvq8-50" value="&lt;span style=&quot;font-size: 16px;&quot;&gt;&lt;b&gt;Manage&lt;/b&gt;&lt;/span&gt;" style="shape=rhombus;perimeter=rhombusPerimeter;whiteSpace=wrap;html=1;align=center;labelBackgroundColor=none;fillColor=#f8cecc;strokeColor=#b85450;rounded=1;" vertex="1" parent="WIyWlLk6GJQsqaUBKTNV-1">
          <mxGeometry x="-68.5" y="585" width="120" height="60" as="geometry" />
        </mxCell>
        <mxCell id="bD0K_7aEFH-HOSiIAvq8-51" value="" style="shape=link;html=1;rounded=1;exitX=0.987;exitY=0.491;exitDx=0;exitDy=0;exitPerimeter=0;" edge="1" parent="WIyWlLk6GJQsqaUBKTNV-1" source="bD0K_7aEFH-HOSiIAvq8-50" target="h55tvgQfYBZGvIcUPzXj-303">
          <mxGeometry relative="1" as="geometry">
            <mxPoint x="-80" y="590" as="sourcePoint" />
            <mxPoint x="80" y="590" as="targetPoint" />
            <Array as="points">
              <mxPoint x="630" y="610" />
            </Array>
          </mxGeometry>
        </mxCell>
        <mxCell id="bD0K_7aEFH-HOSiIAvq8-52" value="1" style="resizable=0;html=1;whiteSpace=wrap;align=right;verticalAlign=bottom;rounded=1;" connectable="0" vertex="1" parent="bD0K_7aEFH-HOSiIAvq8-51">
          <mxGeometry x="1" relative="1" as="geometry" />
        </mxCell>
        <mxCell id="bD0K_7aEFH-HOSiIAvq8-55" value="&lt;span style=&quot;font-size: 16px;&quot;&gt;&lt;b&gt;Work&lt;/b&gt;&lt;/span&gt;" style="shape=rhombus;perimeter=rhombusPerimeter;whiteSpace=wrap;html=1;align=center;labelBackgroundColor=none;fillColor=#f8cecc;strokeColor=#b85450;rounded=1;" vertex="1" parent="WIyWlLk6GJQsqaUBKTNV-1">
          <mxGeometry x="-540" y="-150.80999999999995" width="120" height="60" as="geometry" />
        </mxCell>
        <mxCell id="bD0K_7aEFH-HOSiIAvq8-56" value="" style="endArrow=none;html=1;rounded=1;entryX=0;entryY=0.75;entryDx=0;entryDy=0;" edge="1" parent="WIyWlLk6GJQsqaUBKTNV-1" source="bD0K_7aEFH-HOSiIAvq8-55">
          <mxGeometry relative="1" as="geometry">
            <mxPoint x="-420" y="-160.51000000000002" as="sourcePoint" />
            <mxPoint x="-93.5" y="-66.72000000000006" as="targetPoint" />
            <Array as="points">
              <mxPoint x="-280" y="-124" />
              <mxPoint x="-280" y="-67" />
            </Array>
          </mxGeometry>
        </mxCell>
        <mxCell id="bD0K_7aEFH-HOSiIAvq8-57" value="M" style="resizable=0;html=1;whiteSpace=wrap;align=left;verticalAlign=bottom;rounded=1;" connectable="0" vertex="1" parent="bD0K_7aEFH-HOSiIAvq8-56">
          <mxGeometry x="-1" relative="1" as="geometry" />
        </mxCell>
        <mxCell id="bD0K_7aEFH-HOSiIAvq8-58" value="N" style="resizable=0;html=1;whiteSpace=wrap;align=right;verticalAlign=bottom;rounded=1;" connectable="0" vertex="1" parent="bD0K_7aEFH-HOSiIAvq8-56">
          <mxGeometry x="1" relative="1" as="geometry" />
        </mxCell>
        <mxCell id="bD0K_7aEFH-HOSiIAvq8-59" value="" style="endArrow=none;html=1;rounded=1;exitX=1;exitY=0.5;exitDx=0;exitDy=0;entryX=0;entryY=0.5;entryDx=0;entryDy=0;" edge="1" parent="WIyWlLk6GJQsqaUBKTNV-1" source="h55tvgQfYBZGvIcUPzXj-512" target="bD0K_7aEFH-HOSiIAvq8-55">
          <mxGeometry relative="1" as="geometry">
            <mxPoint x="-740" y="130.78000000000014" as="sourcePoint" />
            <mxPoint x="-501" y="112.49999999999994" as="targetPoint" />
            <Array as="points">
              <mxPoint x="-700" y="8" />
              <mxPoint x="-700" y="-120" />
            </Array>
          </mxGeometry>
        </mxCell>
        <mxCell id="bD0K_7aEFH-HOSiIAvq8-60" value="1" style="resizable=0;html=1;whiteSpace=wrap;align=right;verticalAlign=bottom;rounded=1;" connectable="0" vertex="1" parent="bD0K_7aEFH-HOSiIAvq8-59">
          <mxGeometry x="1" relative="1" as="geometry" />
        </mxCell>
        <mxCell id="bD0K_7aEFH-HOSiIAvq8-61" value="&lt;span style=&quot;font-size: 16px;&quot;&gt;&lt;b&gt;Salary&lt;/b&gt;&lt;/span&gt;" style="ellipse;whiteSpace=wrap;html=1;align=center;rounded=1;labelBackgroundColor=none;fillColor=#E6E6E6;strokeColor=#666666;fontColor=#333333;" vertex="1" parent="WIyWlLk6GJQsqaUBKTNV-1">
          <mxGeometry x="-600" y="-192.93" width="100" height="40" as="geometry" />
        </mxCell>
        <mxCell id="bD0K_7aEFH-HOSiIAvq8-62" value="&lt;span style=&quot;font-size: 16px;&quot;&gt;&lt;b&gt;HireDate&lt;/b&gt;&lt;/span&gt;" style="ellipse;whiteSpace=wrap;html=1;align=center;rounded=1;labelBackgroundColor=none;fillColor=#E6E6E6;strokeColor=#666666;fontColor=#333333;" vertex="1" parent="WIyWlLk6GJQsqaUBKTNV-1">
          <mxGeometry x="-463" y="-200" width="100" height="40" as="geometry" />
        </mxCell>
        <mxCell id="bD0K_7aEFH-HOSiIAvq8-63" value="&lt;span style=&quot;font-size: 16px;&quot;&gt;&lt;b&gt;JobRole&lt;/b&gt;&lt;/span&gt;" style="ellipse;whiteSpace=wrap;html=1;align=center;rounded=1;labelBackgroundColor=none;fillColor=#E6E6E6;strokeColor=#666666;fontColor=#333333;" vertex="1" parent="WIyWlLk6GJQsqaUBKTNV-1">
          <mxGeometry x="-530" y="-240" width="100" height="40" as="geometry" />
        </mxCell>
        <mxCell id="bD0K_7aEFH-HOSiIAvq8-64" value="" style="endArrow=none;html=1;rounded=1;exitX=0.993;exitY=0.568;exitDx=0;exitDy=0;labelBackgroundColor=none;fontColor=default;entryX=0.5;entryY=0;entryDx=0;entryDy=0;fillColor=#fff2cc;strokeColor=#d6b656;exitPerimeter=0;" edge="1" parent="WIyWlLk6GJQsqaUBKTNV-1" source="bD0K_7aEFH-HOSiIAvq8-61" target="bD0K_7aEFH-HOSiIAvq8-55">
          <mxGeometry relative="1" as="geometry">
            <mxPoint x="-596.5" y="-136.81" as="sourcePoint" />
            <mxPoint x="-470" y="-145.81" as="targetPoint" />
          </mxGeometry>
        </mxCell>
        <mxCell id="bD0K_7aEFH-HOSiIAvq8-65" value="" style="endArrow=none;html=1;rounded=1;entryX=0.5;entryY=0;entryDx=0;entryDy=0;exitX=0.5;exitY=1;exitDx=0;exitDy=0;labelBackgroundColor=none;fontColor=default;fillColor=#fff2cc;strokeColor=#d6b656;" edge="1" parent="WIyWlLk6GJQsqaUBKTNV-1" source="bD0K_7aEFH-HOSiIAvq8-63" target="bD0K_7aEFH-HOSiIAvq8-55">
          <mxGeometry relative="1" as="geometry">
            <mxPoint x="-570" y="-45.81" as="sourcePoint" />
            <mxPoint x="-492" y="15.189999999999998" as="targetPoint" />
          </mxGeometry>
        </mxCell>
        <mxCell id="bD0K_7aEFH-HOSiIAvq8-66" value="" style="endArrow=none;html=1;rounded=1;exitX=0.014;exitY=0.606;exitDx=0;exitDy=0;labelBackgroundColor=none;fontColor=default;entryX=0.5;entryY=0;entryDx=0;entryDy=0;fillColor=#fff2cc;strokeColor=#d6b656;exitPerimeter=0;" edge="1" parent="WIyWlLk6GJQsqaUBKTNV-1" source="bD0K_7aEFH-HOSiIAvq8-62" target="bD0K_7aEFH-HOSiIAvq8-55">
          <mxGeometry relative="1" as="geometry">
            <mxPoint x="-480" y="-145.81" as="sourcePoint" />
            <mxPoint x="-470" y="-145.81" as="targetPoint" />
          </mxGeometry>
        </mxCell>
        <mxCell id="bD0K_7aEFH-HOSiIAvq8-67" value="&lt;span style=&quot;font-size: 16px;&quot;&gt;&lt;b&gt;Work on&lt;/b&gt;&lt;/span&gt;" style="shape=rhombus;perimeter=rhombusPerimeter;whiteSpace=wrap;html=1;align=center;labelBackgroundColor=none;fillColor=#f8cecc;strokeColor=#b85450;rounded=1;" vertex="1" parent="WIyWlLk6GJQsqaUBKTNV-1">
          <mxGeometry x="-630" y="74" width="120" height="60" as="geometry" />
        </mxCell>
        <mxCell id="bD0K_7aEFH-HOSiIAvq8-68" value="" style="endArrow=none;html=1;rounded=1;exitX=1;exitY=0.5;exitDx=0;exitDy=0;entryX=0;entryY=0.5;entryDx=0;entryDy=0;" edge="1" parent="WIyWlLk6GJQsqaUBKTNV-1" source="h55tvgQfYBZGvIcUPzXj-515" target="bD0K_7aEFH-HOSiIAvq8-67">
          <mxGeometry relative="1" as="geometry">
            <mxPoint x="-210" y="172.5" as="sourcePoint" />
            <mxPoint x="-50" y="172.5" as="targetPoint" />
            <Array as="points">
              <mxPoint x="-680" y="228" />
              <mxPoint x="-680" y="104" />
            </Array>
          </mxGeometry>
        </mxCell>
        <mxCell id="bD0K_7aEFH-HOSiIAvq8-69" value="M" style="resizable=0;html=1;whiteSpace=wrap;align=left;verticalAlign=bottom;rounded=1;" connectable="0" vertex="1" parent="bD0K_7aEFH-HOSiIAvq8-68">
          <mxGeometry x="-1" relative="1" as="geometry" />
        </mxCell>
        <mxCell id="bD0K_7aEFH-HOSiIAvq8-70" value="N" style="resizable=0;html=1;whiteSpace=wrap;align=right;verticalAlign=bottom;rounded=1;" connectable="0" vertex="1" parent="bD0K_7aEFH-HOSiIAvq8-68">
          <mxGeometry x="1" relative="1" as="geometry" />
        </mxCell>
        <mxCell id="bD0K_7aEFH-HOSiIAvq8-71" value="" style="endArrow=none;html=1;rounded=1;exitX=1;exitY=0.5;exitDx=0;exitDy=0;entryX=0.01;entryY=0.445;entryDx=0;entryDy=0;entryPerimeter=0;" edge="1" parent="WIyWlLk6GJQsqaUBKTNV-1" source="bD0K_7aEFH-HOSiIAvq8-67" target="h55tvgQfYBZGvIcUPzXj-218">
          <mxGeometry relative="1" as="geometry">
            <mxPoint x="-530" y="224.95" as="sourcePoint" />
            <mxPoint x="-83.5" y="-10.000000000000046" as="targetPoint" />
            <Array as="points">
              <mxPoint x="-440" y="104" />
              <mxPoint x="-440" y="-50" />
              <mxPoint x="-280" y="-50" />
            </Array>
          </mxGeometry>
        </mxCell>
        <mxCell id="bD0K_7aEFH-HOSiIAvq8-72" value="M" style="resizable=0;html=1;whiteSpace=wrap;align=left;verticalAlign=bottom;rounded=1;" connectable="0" vertex="1" parent="bD0K_7aEFH-HOSiIAvq8-71">
          <mxGeometry x="-1" relative="1" as="geometry">
            <mxPoint x="30" y="-118" as="offset" />
          </mxGeometry>
        </mxCell>
        <mxCell id="bD0K_7aEFH-HOSiIAvq8-73" value="N" style="resizable=0;html=1;whiteSpace=wrap;align=right;verticalAlign=bottom;rounded=1;" connectable="0" vertex="1" parent="bD0K_7aEFH-HOSiIAvq8-71">
          <mxGeometry x="1" relative="1" as="geometry" />
        </mxCell>
        <mxCell id="bD0K_7aEFH-HOSiIAvq8-74" value="&lt;span style=&quot;font-size: 16px;&quot;&gt;&lt;b&gt;Detail&lt;/b&gt;&lt;/span&gt;" style="ellipse;whiteSpace=wrap;html=1;align=center;rounded=1;labelBackgroundColor=none;fillColor=#E6E6E6;strokeColor=#666666;fontColor=#333333;" vertex="1" parent="WIyWlLk6GJQsqaUBKTNV-1">
          <mxGeometry x="-670" width="100" height="40" as="geometry" />
        </mxCell>
        <mxCell id="bD0K_7aEFH-HOSiIAvq8-75" value="&lt;span style=&quot;font-size: 16px;&quot;&gt;&lt;b&gt;Date&lt;/b&gt;&lt;/span&gt;" style="ellipse;whiteSpace=wrap;html=1;align=center;rounded=1;labelBackgroundColor=none;fillColor=#E6E6E6;strokeColor=#666666;fontColor=#333333;" vertex="1" parent="WIyWlLk6GJQsqaUBKTNV-1">
          <mxGeometry x="-620" y="-40" width="100" height="40" as="geometry" />
        </mxCell>
        <mxCell id="bD0K_7aEFH-HOSiIAvq8-76" value="&lt;span style=&quot;font-size: 16px;&quot;&gt;&lt;b&gt;Cost&lt;/b&gt;&lt;/span&gt;" style="ellipse;whiteSpace=wrap;html=1;align=center;rounded=1;labelBackgroundColor=none;fillColor=#E6E6E6;strokeColor=#666666;fontColor=#333333;" vertex="1" parent="WIyWlLk6GJQsqaUBKTNV-1">
          <mxGeometry x="-570" width="100" height="40" as="geometry" />
        </mxCell>
        <mxCell id="bD0K_7aEFH-HOSiIAvq8-77" value="" style="endArrow=none;html=1;rounded=1;entryX=0.5;entryY=0;entryDx=0;entryDy=0;exitX=0.5;exitY=1;exitDx=0;exitDy=0;labelBackgroundColor=none;fontColor=default;" edge="1" parent="WIyWlLk6GJQsqaUBKTNV-1" source="bD0K_7aEFH-HOSiIAvq8-74" target="bD0K_7aEFH-HOSiIAvq8-67">
          <mxGeometry relative="1" as="geometry">
            <mxPoint x="-640" y="-166" as="sourcePoint" />
            <mxPoint x="-530" y="-104" as="targetPoint" />
          </mxGeometry>
        </mxCell>
        <mxCell id="bD0K_7aEFH-HOSiIAvq8-78" value="" style="endArrow=none;html=1;rounded=1;entryX=0.5;entryY=0;entryDx=0;entryDy=0;exitX=0.5;exitY=1;exitDx=0;exitDy=0;labelBackgroundColor=none;fontColor=default;" edge="1" parent="WIyWlLk6GJQsqaUBKTNV-1" source="bD0K_7aEFH-HOSiIAvq8-75" target="bD0K_7aEFH-HOSiIAvq8-67">
          <mxGeometry relative="1" as="geometry">
            <mxPoint x="-670" y="24" as="sourcePoint" />
            <mxPoint x="-560" y="86" as="targetPoint" />
          </mxGeometry>
        </mxCell>
        <mxCell id="bD0K_7aEFH-HOSiIAvq8-79" value="" style="endArrow=none;html=1;rounded=1;exitX=0.5;exitY=1;exitDx=0;exitDy=0;labelBackgroundColor=none;fontColor=default;entryX=0.5;entryY=0;entryDx=0;entryDy=0;" edge="1" parent="WIyWlLk6GJQsqaUBKTNV-1" source="bD0K_7aEFH-HOSiIAvq8-76" target="bD0K_7aEFH-HOSiIAvq8-67">
          <mxGeometry relative="1" as="geometry">
            <mxPoint x="-580" y="-26" as="sourcePoint" />
            <mxPoint x="-490" y="54" as="targetPoint" />
          </mxGeometry>
        </mxCell>
        <mxCell id="bD0K_7aEFH-HOSiIAvq8-80" value="&lt;span style=&quot;font-size: 16px;&quot;&gt;&lt;b&gt;Get&lt;/b&gt;&lt;/span&gt;" style="shape=rhombus;perimeter=rhombusPerimeter;whiteSpace=wrap;html=1;align=center;labelBackgroundColor=none;fillColor=#f8cecc;strokeColor=#b85450;rounded=1;" vertex="1" parent="WIyWlLk6GJQsqaUBKTNV-1">
          <mxGeometry x="-590" y="250" width="120" height="60" as="geometry" />
        </mxCell>
        <mxCell id="bD0K_7aEFH-HOSiIAvq8-81" value="" style="endArrow=none;html=1;rounded=1;exitX=1;exitY=0.5;exitDx=0;exitDy=0;entryX=0;entryY=0.5;entryDx=0;entryDy=0;" edge="1" parent="WIyWlLk6GJQsqaUBKTNV-1" source="h55tvgQfYBZGvIcUPzXj-516" target="bD0K_7aEFH-HOSiIAvq8-80">
          <mxGeometry relative="1" as="geometry">
            <mxPoint x="-460" y="332.5" as="sourcePoint" />
            <mxPoint x="-300" y="332.5" as="targetPoint" />
            <Array as="points">
              <mxPoint x="-680" y="430" />
              <mxPoint x="-680" y="280" />
            </Array>
          </mxGeometry>
        </mxCell>
        <mxCell id="bD0K_7aEFH-HOSiIAvq8-82" value="M" style="resizable=0;html=1;whiteSpace=wrap;align=left;verticalAlign=bottom;rounded=1;" connectable="0" vertex="1" parent="bD0K_7aEFH-HOSiIAvq8-81">
          <mxGeometry x="-1" relative="1" as="geometry" />
        </mxCell>
        <mxCell id="bD0K_7aEFH-HOSiIAvq8-83" value="N" style="resizable=0;html=1;whiteSpace=wrap;align=right;verticalAlign=bottom;rounded=1;" connectable="0" vertex="1" parent="bD0K_7aEFH-HOSiIAvq8-81">
          <mxGeometry x="1" relative="1" as="geometry" />
        </mxCell>
        <mxCell id="bD0K_7aEFH-HOSiIAvq8-84" value="" style="endArrow=none;html=1;rounded=1;exitX=1;exitY=0.5;exitDx=0;exitDy=0;entryX=0;entryY=0.75;entryDx=0;entryDy=0;" edge="1" parent="WIyWlLk6GJQsqaUBKTNV-1" source="bD0K_7aEFH-HOSiIAvq8-80" target="h55tvgQfYBZGvIcUPzXj-218">
          <mxGeometry relative="1" as="geometry">
            <mxPoint x="-900" y="380" as="sourcePoint" />
            <mxPoint x="-744" y="385" as="targetPoint" />
            <Array as="points">
              <mxPoint x="-400" y="280" />
              <mxPoint x="-400" y="130" />
              <mxPoint x="-400" y="-30" />
            </Array>
          </mxGeometry>
        </mxCell>
        <mxCell id="bD0K_7aEFH-HOSiIAvq8-85" value="M" style="resizable=0;html=1;whiteSpace=wrap;align=left;verticalAlign=bottom;rounded=1;" connectable="0" vertex="1" parent="bD0K_7aEFH-HOSiIAvq8-84">
          <mxGeometry x="-1" relative="1" as="geometry" />
        </mxCell>
        <mxCell id="bD0K_7aEFH-HOSiIAvq8-86" value="N" style="resizable=0;html=1;whiteSpace=wrap;align=right;verticalAlign=bottom;rounded=1;" connectable="0" vertex="1" parent="bD0K_7aEFH-HOSiIAvq8-84">
          <mxGeometry x="1" relative="1" as="geometry" />
        </mxCell>
        <mxCell id="bD0K_7aEFH-HOSiIAvq8-87" value="&lt;span style=&quot;font-size: 16px;&quot;&gt;&lt;b&gt;Date&lt;/b&gt;&lt;/span&gt;" style="ellipse;whiteSpace=wrap;html=1;align=center;rounded=1;labelBackgroundColor=none;fillColor=#E6E6E6;strokeColor=#666666;fontColor=#333333;" vertex="1" parent="WIyWlLk6GJQsqaUBKTNV-1">
          <mxGeometry x="-580" y="180" width="100" height="40" as="geometry" />
        </mxCell>
        <mxCell id="bD0K_7aEFH-HOSiIAvq8-88" value="" style="endArrow=none;html=1;rounded=1;exitX=0.5;exitY=0;exitDx=0;exitDy=0;labelBackgroundColor=none;fontColor=default;" edge="1" parent="WIyWlLk6GJQsqaUBKTNV-1" source="bD0K_7aEFH-HOSiIAvq8-80">
          <mxGeometry relative="1" as="geometry">
            <mxPoint x="-670" y="162.5" as="sourcePoint" />
            <mxPoint x="-530" y="220" as="targetPoint" />
          </mxGeometry>
        </mxCell>
        <mxCell id="bD0K_7aEFH-HOSiIAvq8-90" value="&lt;span style=&quot;font-size: 16px;&quot;&gt;DOB&lt;/span&gt;" style="ellipse;whiteSpace=wrap;html=1;align=center;rounded=1;fontStyle=1;labelBackgroundColor=none;fillColor=#E6E6E6;strokeColor=#666666;fontColor=#333333;" vertex="1" parent="WIyWlLk6GJQsqaUBKTNV-1">
          <mxGeometry x="660" y="-600" width="80" height="40" as="geometry" />
        </mxCell>
        <mxCell id="bD0K_7aEFH-HOSiIAvq8-93" value="&lt;span style=&quot;font-size: 16px;&quot;&gt;&lt;b&gt;Topic_ID&lt;/b&gt;&lt;/span&gt;" style="ellipse;whiteSpace=wrap;html=1;align=center;rounded=1;labelBackgroundColor=none;fillColor=#E6E6E6;strokeColor=#82b366;" vertex="1" parent="WIyWlLk6GJQsqaUBKTNV-1">
          <mxGeometry x="1645" y="510" width="100" height="40" as="geometry" />
        </mxCell>
        <mxCell id="bD0K_7aEFH-HOSiIAvq8-94" value="" style="endArrow=none;html=1;rounded=1;entryX=1;entryY=0.5;entryDx=0;entryDy=0;exitX=0;exitY=0.5;exitDx=0;exitDy=0;labelBackgroundColor=none;fontColor=default;" edge="1" parent="WIyWlLk6GJQsqaUBKTNV-1" source="bD0K_7aEFH-HOSiIAvq8-93" target="h55tvgQfYBZGvIcUPzXj-300">
          <mxGeometry relative="1" as="geometry">
            <mxPoint x="1695" y="547.93" as="sourcePoint" />
            <mxPoint x="1630" y="557.93" as="targetPoint" />
          </mxGeometry>
        </mxCell>
        <mxCell id="bD0K_7aEFH-HOSiIAvq8-100" value="&lt;span style=&quot;font-size: 16px;&quot;&gt;&lt;b&gt;Crtf_URL&lt;/b&gt;&lt;/span&gt;" style="ellipse;whiteSpace=wrap;html=1;align=center;rounded=1;labelBackgroundColor=none;fillColor=#E6E6E6;strokeColor=#666666;fontColor=#333333;" vertex="1" parent="WIyWlLk6GJQsqaUBKTNV-1">
          <mxGeometry x="-973" y="470" width="100" height="40" as="geometry" />
        </mxCell>
        <mxCell id="bD0K_7aEFH-HOSiIAvq8-101" value="" style="endArrow=none;html=1;rounded=1;entryX=0;entryY=0.5;entryDx=0;entryDy=0;labelBackgroundColor=none;fontColor=default;exitX=0.5;exitY=0;exitDx=0;exitDy=0;" edge="1" parent="WIyWlLk6GJQsqaUBKTNV-1" source="bD0K_7aEFH-HOSiIAvq8-100" target="h55tvgQfYBZGvIcUPzXj-516">
          <mxGeometry relative="1" as="geometry">
            <mxPoint x="-860" y="567.5" as="sourcePoint" />
            <mxPoint x="-825" y="502.5" as="targetPoint" />
          </mxGeometry>
        </mxCell>
        <mxCell id="bD0K_7aEFH-HOSiIAvq8-102" value="&lt;span style=&quot;font-size: 16px;&quot;&gt;&lt;b&gt;SM_URL&lt;/b&gt;&lt;/span&gt;" style="ellipse;whiteSpace=wrap;html=1;align=center;rounded=1;labelBackgroundColor=none;fillColor=#E6E6E6;strokeColor=#666666;fontColor=#333333;" vertex="1" parent="WIyWlLk6GJQsqaUBKTNV-1">
          <mxGeometry x="-10" y="-143.74" width="100" height="40" as="geometry" />
        </mxCell>
        <mxCell id="bD0K_7aEFH-HOSiIAvq8-103" value="" style="endArrow=none;html=1;rounded=1;exitX=0.5;exitY=1;exitDx=0;exitDy=0;labelBackgroundColor=none;fontColor=default;entryX=0.5;entryY=0;entryDx=0;entryDy=0;" edge="1" parent="WIyWlLk6GJQsqaUBKTNV-1" source="bD0K_7aEFH-HOSiIAvq8-102" target="h55tvgQfYBZGvIcUPzXj-218">
          <mxGeometry relative="1" as="geometry">
            <mxPoint x="-152.5" y="-183.74" as="sourcePoint" />
            <mxPoint x="-42.5" y="-83.74000000000001" as="targetPoint" />
          </mxGeometry>
        </mxCell>
        <mxCell id="bD0K_7aEFH-HOSiIAvq8-104" value="&lt;b style=&quot;font-size: 16px;&quot;&gt;Military&lt;/b&gt;&lt;div&gt;&lt;b style=&quot;font-size: 16px;&quot;&gt;Status&lt;/b&gt;&lt;/div&gt;" style="ellipse;whiteSpace=wrap;html=1;align=center;rounded=1;labelBackgroundColor=none;fillColor=#E6E6E6;strokeColor=#666666;fontColor=#333333;" vertex="1" parent="WIyWlLk6GJQsqaUBKTNV-1">
          <mxGeometry x="-68.5" y="-183.74" width="100" height="40" as="geometry" />
        </mxCell>
        <mxCell id="bD0K_7aEFH-HOSiIAvq8-105" value="" style="endArrow=none;html=1;rounded=1;entryX=0.5;entryY=0;entryDx=0;entryDy=0;exitX=0.5;exitY=1;exitDx=0;exitDy=0;labelBackgroundColor=none;fontColor=default;" edge="1" parent="WIyWlLk6GJQsqaUBKTNV-1" source="bD0K_7aEFH-HOSiIAvq8-104" target="h55tvgQfYBZGvIcUPzXj-218">
          <mxGeometry relative="1" as="geometry">
            <mxPoint x="-162.5" y="-143.74" as="sourcePoint" />
            <mxPoint x="-61.5" y="-66.74000000000001" as="targetPoint" />
          </mxGeometry>
        </mxCell>
        <mxCell id="QQ61DGYHqijq6HDE7Jqv-1" value="&lt;span style=&quot;font-size: 16px;&quot;&gt;&lt;b&gt;City&lt;/b&gt;&lt;/span&gt;" style="ellipse;whiteSpace=wrap;html=1;align=center;rounded=1;labelBackgroundColor=none;fillColor=#E6E6E6;strokeColor=#666666;fontColor=#333333;" vertex="1" parent="WIyWlLk6GJQsqaUBKTNV-1">
          <mxGeometry x="790.5" y="-720" width="100" height="40" as="geometry" />
        </mxCell>
        <mxCell id="QQ61DGYHqijq6HDE7Jqv-2" value="&lt;span style=&quot;font-size: 16px;&quot;&gt;&lt;b&gt;Street&lt;/b&gt;&lt;/span&gt;" style="ellipse;whiteSpace=wrap;html=1;align=center;rounded=1;labelBackgroundColor=none;fillColor=#E6E6E6;strokeColor=#666666;fontColor=#333333;" vertex="1" parent="WIyWlLk6GJQsqaUBKTNV-1">
          <mxGeometry x="669.5" y="-720" width="100" height="40" as="geometry" />
        </mxCell>
        <mxCell id="QQ61DGYHqijq6HDE7Jqv-3" value="" style="endArrow=none;html=1;rounded=1;entryX=0.5;entryY=1;entryDx=0;entryDy=0;exitX=0.5;exitY=1;exitDx=0;exitDy=0;labelBackgroundColor=none;fontColor=default;fillColor=#d5e8d4;strokeColor=#82b366;" edge="1" parent="WIyWlLk6GJQsqaUBKTNV-1" source="QQ61DGYHqijq6HDE7Jqv-2" target="QQ61DGYHqijq6HDE7Jqv-1">
          <mxGeometry relative="1" as="geometry">
            <mxPoint x="679.5" y="-670" as="sourcePoint" />
            <mxPoint x="839.5" y="-670" as="targetPoint" />
            <Array as="points">
              <mxPoint x="769.5" y="-650" />
            </Array>
          </mxGeometry>
        </mxCell>
        <mxCell id="QQ61DGYHqijq6HDE7Jqv-7" value="" style="endArrow=none;html=1;rounded=1;exitX=0.515;exitY=1.003;exitDx=0;exitDy=0;labelBackgroundColor=none;fontColor=default;exitPerimeter=0;entryX=0.447;entryY=0.007;entryDx=0;entryDy=0;entryPerimeter=0;" edge="1" parent="WIyWlLk6GJQsqaUBKTNV-1" source="h55tvgQfYBZGvIcUPzXj-312" target="h55tvgQfYBZGvIcUPzXj-303">
          <mxGeometry relative="1" as="geometry">
            <mxPoint x="640.5" y="-159.8" as="sourcePoint" />
            <mxPoint x="646.3000000000002" y="-80.00000000000004" as="targetPoint" />
          </mxGeometry>
        </mxCell>
        <mxCell id="QQ61DGYHqijq6HDE7Jqv-13" value="" style="endArrow=none;html=1;rounded=1;entryX=0.529;entryY=1.04;entryDx=0;entryDy=0;entryPerimeter=0;exitX=0.5;exitY=0;exitDx=0;exitDy=0;" edge="1" parent="WIyWlLk6GJQsqaUBKTNV-1" source="h55tvgQfYBZGvIcUPzXj-442" target="h55tvgQfYBZGvIcUPzXj-469">
          <mxGeometry width="50" height="50" relative="1" as="geometry">
            <mxPoint x="330" y="767.9300000000001" as="sourcePoint" />
            <mxPoint x="380" y="717.9300000000001" as="targetPoint" />
          </mxGeometry>
        </mxCell>
        <mxCell id="QQ61DGYHqijq6HDE7Jqv-14" value="" style="endArrow=none;html=1;rounded=1;entryX=0.5;entryY=1;entryDx=0;entryDy=0;exitX=0.5;exitY=0;exitDx=0;exitDy=0;" edge="1" parent="WIyWlLk6GJQsqaUBKTNV-1" source="h55tvgQfYBZGvIcUPzXj-442" target="h55tvgQfYBZGvIcUPzXj-468">
          <mxGeometry width="50" height="50" relative="1" as="geometry">
            <mxPoint x="330" y="767.9300000000001" as="sourcePoint" />
            <mxPoint x="380" y="717.9300000000001" as="targetPoint" />
          </mxGeometry>
        </mxCell>
        <mxCell id="QQ61DGYHqijq6HDE7Jqv-15" value="" style="endArrow=none;html=1;rounded=1;entryX=0.5;entryY=1;entryDx=0;entryDy=0;exitX=0.5;exitY=0;exitDx=0;exitDy=0;" edge="1" parent="WIyWlLk6GJQsqaUBKTNV-1" source="h55tvgQfYBZGvIcUPzXj-442" target="h55tvgQfYBZGvIcUPzXj-473">
          <mxGeometry width="50" height="50" relative="1" as="geometry">
            <mxPoint x="390" y="727.9300000000001" as="sourcePoint" />
            <mxPoint x="380" y="717.9300000000001" as="targetPoint" />
          </mxGeometry>
        </mxCell>
        <mxCell id="QQ61DGYHqijq6HDE7Jqv-17" value="" style="shape=link;html=1;rounded=1;exitX=0;exitY=0.5;exitDx=0;exitDy=0;entryX=0.9;entryY=1.012;entryDx=0;entryDy=0;labelBackgroundColor=none;fontColor=default;entryPerimeter=0;" edge="1" parent="WIyWlLk6GJQsqaUBKTNV-1" source="h55tvgQfYBZGvIcUPzXj-442" target="h55tvgQfYBZGvIcUPzXj-218">
          <mxGeometry relative="1" as="geometry">
            <mxPoint x="746" y="831.21" as="sourcePoint" />
            <mxPoint x="-310" y="-9.999999999999808" as="targetPoint" />
            <Array as="points">
              <mxPoint x="-100" y="310" />
              <mxPoint x="-100" y="160" />
              <mxPoint x="42" y="160" />
              <mxPoint x="40" y="80" />
            </Array>
          </mxGeometry>
        </mxCell>
        <mxCell id="QQ61DGYHqijq6HDE7Jqv-18" value="M" style="resizable=0;html=1;whiteSpace=wrap;align=left;verticalAlign=bottom;labelBackgroundColor=none;rounded=1;" connectable="0" vertex="1" parent="QQ61DGYHqijq6HDE7Jqv-17">
          <mxGeometry x="-1" relative="1" as="geometry" />
        </mxCell>
        <mxCell id="QQ61DGYHqijq6HDE7Jqv-19" value="N" style="resizable=0;html=1;whiteSpace=wrap;align=right;verticalAlign=bottom;labelBackgroundColor=none;rounded=1;" connectable="0" vertex="1" parent="QQ61DGYHqijq6HDE7Jqv-17">
          <mxGeometry x="1" relative="1" as="geometry" />
        </mxCell>
        <mxCell id="y2G0NDdtF5iTaBQ4Nq8z-0" value="&lt;span style=&quot;font-size: 18px;&quot;&gt;&lt;b&gt;Person&lt;/b&gt;&lt;/span&gt;" style="rounded=1;arcSize=10;whiteSpace=wrap;html=1;align=center;labelBackgroundColor=none;fillColor=#B7272A;strokeColor=#b85450;fontColor=#FFFFFF;" vertex="1" parent="WIyWlLk6GJQsqaUBKTNV-1">
          <mxGeometry x="641" y="-465" width="150" height="70" as="geometry" />
        </mxCell>
        <mxCell id="y2G0NDdtF5iTaBQ4Nq8z-1" value="" style="endArrow=none;html=1;rounded=1;labelBackgroundColor=none;fontColor=default;fillColor=#d5e8d4;strokeColor=#82b366;entryX=0.5;entryY=1;entryDx=0;entryDy=0;exitX=0.481;exitY=-0.005;exitDx=0;exitDy=0;exitPerimeter=0;" edge="1" parent="WIyWlLk6GJQsqaUBKTNV-1" source="y2G0NDdtF5iTaBQ4Nq8z-0" target="bD0K_7aEFH-HOSiIAvq8-90">
          <mxGeometry relative="1" as="geometry">
            <mxPoint x="710" y="-470" as="sourcePoint" />
            <mxPoint x="706" y="-420" as="targetPoint" />
          </mxGeometry>
        </mxCell>
        <mxCell id="y2G0NDdtF5iTaBQ4Nq8z-2" value="" style="endArrow=none;html=1;rounded=1;labelBackgroundColor=none;fontColor=default;fillColor=#d5e8d4;strokeColor=#82b366;entryX=0;entryY=0.5;entryDx=0;entryDy=0;exitX=0.492;exitY=-0.01;exitDx=0;exitDy=0;exitPerimeter=0;" edge="1" parent="WIyWlLk6GJQsqaUBKTNV-1" source="y2G0NDdtF5iTaBQ4Nq8z-0" target="h55tvgQfYBZGvIcUPzXj-60">
          <mxGeometry relative="1" as="geometry">
            <mxPoint x="740" y="-480" as="sourcePoint" />
            <mxPoint x="840" y="-333.61" as="targetPoint" />
          </mxGeometry>
        </mxCell>
        <mxCell id="y2G0NDdtF5iTaBQ4Nq8z-3" value="" style="endArrow=none;html=1;rounded=1;exitX=1;exitY=0.5;exitDx=0;exitDy=0;labelBackgroundColor=none;fontColor=default;fillColor=#d5e8d4;strokeColor=#82b366;entryX=0;entryY=0.5;entryDx=0;entryDy=0;" edge="1" parent="WIyWlLk6GJQsqaUBKTNV-1" source="h55tvgQfYBZGvIcUPzXj-60" target="h55tvgQfYBZGvIcUPzXj-59">
          <mxGeometry relative="1" as="geometry">
            <mxPoint x="746" y="-580" as="sourcePoint" />
            <mxPoint x="831" y="-554" as="targetPoint" />
          </mxGeometry>
        </mxCell>
        <mxCell id="y2G0NDdtF5iTaBQ4Nq8z-4" value="" style="endArrow=none;html=1;rounded=1;exitX=1;exitY=0.5;exitDx=0;exitDy=0;labelBackgroundColor=none;fontColor=default;fillColor=#d5e8d4;strokeColor=#82b366;entryX=0.044;entryY=0.709;entryDx=0;entryDy=0;entryPerimeter=0;" edge="1" parent="WIyWlLk6GJQsqaUBKTNV-1" source="h55tvgQfYBZGvIcUPzXj-60" target="h55tvgQfYBZGvIcUPzXj-61">
          <mxGeometry relative="1" as="geometry">
            <mxPoint x="926" y="-550" as="sourcePoint" />
            <mxPoint x="896" y="-520" as="targetPoint" />
          </mxGeometry>
        </mxCell>
        <mxCell id="y2G0NDdtF5iTaBQ4Nq8z-5" value="Authorize" style="rhombus;whiteSpace=wrap;html=1;rounded=1;fillColor=#FFCCCC;" vertex="1" parent="WIyWlLk6GJQsqaUBKTNV-1">
          <mxGeometry x="112" y="-500" width="104" height="80" as="geometry" />
        </mxCell>
        <mxCell id="y2G0NDdtF5iTaBQ4Nq8z-6" value="&lt;b style=&quot;font-size: 16px;&quot;&gt;&lt;u&gt;P_ID&lt;/u&gt;&lt;/b&gt;" style="ellipse;whiteSpace=wrap;html=1;align=center;fontStyle=4;rounded=1;labelBackgroundColor=none;fillColor=#E6E6E6;strokeColor=#666666;fontColor=#333333;" vertex="1" parent="WIyWlLk6GJQsqaUBKTNV-1">
          <mxGeometry x="840" y="-530" width="100" height="40" as="geometry" />
        </mxCell>
        <mxCell id="y2G0NDdtF5iTaBQ4Nq8z-7" value="" style="endArrow=none;html=1;rounded=1;exitX=0;exitY=0.5;exitDx=0;exitDy=0;labelBackgroundColor=none;fontColor=default;entryX=0.5;entryY=-0.02;entryDx=0;entryDy=0;entryPerimeter=0;" edge="1" parent="WIyWlLk6GJQsqaUBKTNV-1" source="y2G0NDdtF5iTaBQ4Nq8z-6" target="y2G0NDdtF5iTaBQ4Nq8z-0">
          <mxGeometry relative="1" as="geometry">
            <mxPoint x="811" y="-274.79999999999995" as="sourcePoint" />
            <mxPoint x="760" y="-470" as="targetPoint" />
          </mxGeometry>
        </mxCell>
        <mxCell id="h55tvgQfYBZGvIcUPzXj-66" value="&lt;font style=&quot;font-size: 16px;&quot;&gt;Hire_Date&lt;/font&gt;" style="ellipse;whiteSpace=wrap;html=1;align=center;rounded=1;fontStyle=1;labelBackgroundColor=none;fillColor=#E6E6E6;strokeColor=#666666;fontColor=#333333;" vertex="1" parent="WIyWlLk6GJQsqaUBKTNV-1">
          <mxGeometry x="1150" y="-199.99999999999997" width="100" height="40" as="geometry" />
        </mxCell>
        <mxCell id="y2G0NDdtF5iTaBQ4Nq8z-13" value="" style="shape=link;html=1;rounded=1;entryX=0;entryY=0.5;entryDx=0;entryDy=0;exitX=0.5;exitY=0;exitDx=0;exitDy=0;" edge="1" parent="WIyWlLk6GJQsqaUBKTNV-1" source="y2G0NDdtF5iTaBQ4Nq8z-5" target="h55tvgQfYBZGvIcUPzXj-136">
          <mxGeometry relative="1" as="geometry">
            <mxPoint x="446" y="-630" as="sourcePoint" />
            <mxPoint x="505" y="-520" as="targetPoint" />
            <Array as="points">
              <mxPoint x="164" y="-540" />
              <mxPoint x="82" y="-540" />
              <mxPoint x="82" y="-635" />
            </Array>
          </mxGeometry>
        </mxCell>
        <mxCell id="y2G0NDdtF5iTaBQ4Nq8z-14" value="M" style="resizable=0;html=1;whiteSpace=wrap;align=left;verticalAlign=bottom;rounded=1;" connectable="0" vertex="1" parent="y2G0NDdtF5iTaBQ4Nq8z-13">
          <mxGeometry x="-1" relative="1" as="geometry" />
        </mxCell>
        <mxCell id="y2G0NDdtF5iTaBQ4Nq8z-15" value="N" style="resizable=0;html=1;whiteSpace=wrap;align=right;verticalAlign=bottom;rounded=1;" connectable="0" vertex="1" parent="y2G0NDdtF5iTaBQ4Nq8z-13">
          <mxGeometry x="1" relative="1" as="geometry" />
        </mxCell>
        <mxCell id="y2G0NDdtF5iTaBQ4Nq8z-17" value="" style="shape=link;html=1;rounded=1;exitX=0;exitY=0.5;exitDx=0;exitDy=0;entryX=0.5;entryY=1;entryDx=0;entryDy=0;" edge="1" parent="WIyWlLk6GJQsqaUBKTNV-1" source="y2G0NDdtF5iTaBQ4Nq8z-0" target="y2G0NDdtF5iTaBQ4Nq8z-5">
          <mxGeometry relative="1" as="geometry">
            <mxPoint x="124" y="-405" as="sourcePoint" />
            <mxPoint x="284" y="-550" as="targetPoint" />
            <Array as="points">
              <mxPoint x="560" y="-430" />
              <mxPoint x="560" y="-370" />
              <mxPoint x="360" y="-370" />
              <mxPoint x="164" y="-370" />
            </Array>
          </mxGeometry>
        </mxCell>
        <mxCell id="y2G0NDdtF5iTaBQ4Nq8z-18" value="M" style="resizable=0;html=1;whiteSpace=wrap;align=left;verticalAlign=bottom;rounded=1;" connectable="0" vertex="1" parent="y2G0NDdtF5iTaBQ4Nq8z-17">
          <mxGeometry x="-1" relative="1" as="geometry" />
        </mxCell>
        <mxCell id="y2G0NDdtF5iTaBQ4Nq8z-19" value="N" style="resizable=0;html=1;whiteSpace=wrap;align=right;verticalAlign=bottom;rounded=1;" connectable="0" vertex="1" parent="y2G0NDdtF5iTaBQ4Nq8z-17">
          <mxGeometry x="1" relative="1" as="geometry" />
        </mxCell>
        <mxCell id="y2G0NDdtF5iTaBQ4Nq8z-22" value="" style="endArrow=none;html=1;rounded=1;entryX=1;entryY=1;entryDx=0;entryDy=0;exitX=0.007;exitY=0.054;exitDx=0;exitDy=0;exitPerimeter=0;" edge="1" parent="WIyWlLk6GJQsqaUBKTNV-1" source="h55tvgQfYBZGvIcUPzXj-52" target="y2G0NDdtF5iTaBQ4Nq8z-20">
          <mxGeometry width="50" height="50" relative="1" as="geometry">
            <mxPoint x="550" y="-410" as="sourcePoint" />
            <mxPoint x="622" y="-510" as="targetPoint" />
          </mxGeometry>
        </mxCell>
        <mxCell id="y2G0NDdtF5iTaBQ4Nq8z-23" value="" style="endArrow=none;html=1;rounded=1;entryX=0;entryY=1;entryDx=0;entryDy=0;exitX=0.864;exitY=-0.003;exitDx=0;exitDy=0;exitPerimeter=0;" edge="1" parent="WIyWlLk6GJQsqaUBKTNV-1" source="h55tvgQfYBZGvIcUPzXj-303" target="y2G0NDdtF5iTaBQ4Nq8z-20">
          <mxGeometry width="50" height="50" relative="1" as="geometry">
            <mxPoint x="690" y="5" as="sourcePoint" />
            <mxPoint x="75" y="-602" as="targetPoint" />
          </mxGeometry>
        </mxCell>
        <mxCell id="y2G0NDdtF5iTaBQ4Nq8z-24" value="" style="endArrow=none;html=1;rounded=1;entryX=0;entryY=0.5;entryDx=0;entryDy=0;exitX=1;exitY=0;exitDx=0;exitDy=0;" edge="1" parent="WIyWlLk6GJQsqaUBKTNV-1" source="h55tvgQfYBZGvIcUPzXj-218" target="y2G0NDdtF5iTaBQ4Nq8z-20">
          <mxGeometry width="50" height="50" relative="1" as="geometry">
            <mxPoint x="-160" y="-170" as="sourcePoint" />
            <mxPoint x="209" y="-646" as="targetPoint" />
          </mxGeometry>
        </mxCell>
        <mxCell id="dLOduK9fVCViuCwa0R3C-0" value="" style="shape=link;html=1;rounded=1;entryX=0.25;entryY=1;entryDx=0;entryDy=0;exitX=0.532;exitY=-0.006;exitDx=0;exitDy=0;exitPerimeter=0;" edge="1" parent="WIyWlLk6GJQsqaUBKTNV-1" source="y2G0NDdtF5iTaBQ4Nq8z-20">
          <mxGeometry width="100" relative="1" as="geometry">
            <mxPoint x="715.05" y="-259.99999999999994" as="sourcePoint" />
            <mxPoint x="716.95" y="-394.7" as="targetPoint" />
          </mxGeometry>
        </mxCell>
        <mxCell id="dLOduK9fVCViuCwa0R3C-1" value="" style="endArrow=none;html=1;rounded=1;exitX=0.5;exitY=1;exitDx=0;exitDy=0;labelBackgroundColor=none;fontColor=default;fillColor=#d5e8d4;strokeColor=#82b366;entryX=0.533;entryY=0.001;entryDx=0;entryDy=0;entryPerimeter=0;" edge="1" parent="WIyWlLk6GJQsqaUBKTNV-1" source="dLOduK9fVCViuCwa0R3C-2" target="h55tvgQfYBZGvIcUPzXj-52">
          <mxGeometry relative="1" as="geometry">
            <mxPoint x="1159" y="-171.29" as="sourcePoint" />
            <mxPoint x="1173" y="-31.289999999999992" as="targetPoint" />
          </mxGeometry>
        </mxCell>
        <mxCell id="dLOduK9fVCViuCwa0R3C-2" value="&lt;font style=&quot;font-size: 16px;&quot;&gt;Salary&lt;/font&gt;" style="ellipse;whiteSpace=wrap;html=1;align=center;rounded=1;fontStyle=1;labelBackgroundColor=none;fillColor=#E6E6E6;strokeColor=#666666;fontColor=#333333;" vertex="1" parent="WIyWlLk6GJQsqaUBKTNV-1">
          <mxGeometry x="1080" y="-152.93" width="100" height="40" as="geometry" />
        </mxCell>
        <mxCell id="dLOduK9fVCViuCwa0R3C-3" value="&lt;b style=&quot;font-size: 16px;&quot;&gt;&lt;u&gt;Salary&lt;/u&gt;&lt;/b&gt;" style="ellipse;whiteSpace=wrap;html=1;align=center;fontStyle=4;rounded=1;labelBackgroundColor=none;fillColor=#E6E6E6;strokeColor=#666666;fontColor=#333333;" vertex="1" parent="WIyWlLk6GJQsqaUBKTNV-1">
          <mxGeometry x="520" y="-173.74" width="100" height="40" as="geometry" />
        </mxCell>
        <mxCell id="dLOduK9fVCViuCwa0R3C-4" value="" style="endArrow=none;html=1;rounded=1;labelBackgroundColor=none;fontColor=default;entryX=0.434;entryY=0;entryDx=0;entryDy=0;exitX=0.5;exitY=1;exitDx=0;exitDy=0;entryPerimeter=0;" edge="1" parent="WIyWlLk6GJQsqaUBKTNV-1" source="dLOduK9fVCViuCwa0R3C-3" target="h55tvgQfYBZGvIcUPzXj-303">
          <mxGeometry relative="1" as="geometry">
            <mxPoint x="540.5" y="-105" as="sourcePoint" />
            <mxPoint x="705.5" y="-63.06999999999999" as="targetPoint" />
          </mxGeometry>
        </mxCell>
        <mxCell id="dLOduK9fVCViuCwa0R3C-5" value="&lt;b style=&quot;font-size: 16px;&quot;&gt;&lt;u&gt;Hire_Date&lt;/u&gt;&lt;/b&gt;" style="ellipse;whiteSpace=wrap;html=1;align=center;fontStyle=4;rounded=1;labelBackgroundColor=none;fillColor=#E6E6E6;strokeColor=#666666;fontColor=#333333;" vertex="1" parent="WIyWlLk6GJQsqaUBKTNV-1">
          <mxGeometry x="450" y="-133.74" width="100" height="40" as="geometry" />
        </mxCell>
        <mxCell id="dLOduK9fVCViuCwa0R3C-6" value="" style="endArrow=none;html=1;rounded=1;labelBackgroundColor=none;fontColor=default;exitX=1;exitY=1;exitDx=0;exitDy=0;" edge="1" parent="WIyWlLk6GJQsqaUBKTNV-1" source="dLOduK9fVCViuCwa0R3C-5">
          <mxGeometry relative="1" as="geometry">
            <mxPoint x="500.5" y="-37.92999999999999" as="sourcePoint" />
            <mxPoint x="630" y="-80" as="targetPoint" />
          </mxGeometry>
        </mxCell>
        <mxCell id="2GzJDX4sfpaGsjvHpTA_-2" value="" style="shape=link;html=1;rounded=1;entryX=0.156;entryY=0.959;entryDx=0;entryDy=0;entryPerimeter=0;exitX=0.5;exitY=0;exitDx=0;exitDy=0;" edge="1" parent="WIyWlLk6GJQsqaUBKTNV-1" source="h55tvgQfYBZGvIcUPzXj-411" target="h55tvgQfYBZGvIcUPzXj-280">
          <mxGeometry relative="1" as="geometry">
            <mxPoint x="1350" y="520" as="sourcePoint" />
            <mxPoint x="1510" y="520" as="targetPoint" />
            <Array as="points">
              <mxPoint x="1380" y="280" />
              <mxPoint x="1474" y="280" />
            </Array>
          </mxGeometry>
        </mxCell>
        <mxCell id="2GzJDX4sfpaGsjvHpTA_-3" value="1" style="resizable=0;html=1;whiteSpace=wrap;align=right;verticalAlign=bottom;rounded=1;" connectable="0" vertex="1" parent="2GzJDX4sfpaGsjvHpTA_-2">
          <mxGeometry x="1" relative="1" as="geometry" />
        </mxCell>
        <mxCell id="2GzJDX4sfpaGsjvHpTA_-4" value="" style="shape=link;html=1;rounded=1;entryX=0.5;entryY=1;entryDx=0;entryDy=0;exitX=0.892;exitY=0.062;exitDx=0;exitDy=0;exitPerimeter=0;" edge="1" parent="WIyWlLk6GJQsqaUBKTNV-1" source="h55tvgQfYBZGvIcUPzXj-475" target="bD0K_7aEFH-HOSiIAvq8-50">
          <mxGeometry relative="1" as="geometry">
            <mxPoint x="-330" y="780" as="sourcePoint" />
            <mxPoint x="-170" y="780" as="targetPoint" />
            <Array as="points">
              <mxPoint x="-551" y="940" />
              <mxPoint y="940" />
            </Array>
          </mxGeometry>
        </mxCell>
        <mxCell id="2GzJDX4sfpaGsjvHpTA_-5" value="M" style="resizable=0;html=1;whiteSpace=wrap;align=left;verticalAlign=bottom;rounded=1;" connectable="0" vertex="1" parent="2GzJDX4sfpaGsjvHpTA_-4">
          <mxGeometry x="-1" relative="1" as="geometry" />
        </mxCell>
        <mxCell id="2GzJDX4sfpaGsjvHpTA_-6" value="N" style="resizable=0;html=1;whiteSpace=wrap;align=right;verticalAlign=bottom;rounded=1;" connectable="0" vertex="1" parent="2GzJDX4sfpaGsjvHpTA_-4">
          <mxGeometry x="1" relative="1" as="geometry" />
        </mxCell>
        <mxCell id="y2G0NDdtF5iTaBQ4Nq8z-20" value="d" style="ellipse;whiteSpace=wrap;html=1;aspect=fixed;fillColor=#333333;rounded=1;strokeColor=#FFB570;fontColor=#FFFFFF;" vertex="1" parent="WIyWlLk6GJQsqaUBKTNV-1">
          <mxGeometry x="690" y="-320" width="50" height="50" as="geometry" />
        </mxCell>
      </root>
    </mxGraphModel>
  </diagram>
</mxfile>
